<svg width="208" height="256" viewBox="0 0 208 256" fill="none" xmlns="http://www.w3.org/2000/svg">
<path opacity="0.07" d="M207.798 128.759C204.184 126.654 201.567 126.597 199.945 128.589C198.323 130.552 197.526 133.881 197.526 138.576V163.87C197.526 168.679 197.071 172.662 196.189 175.82C195.307 179.092 193.799 181.426 191.722 182.791C189.702 184.185 186.97 184.555 183.499 183.901C180.113 183.275 175.874 181.511 170.809 178.58L168.391 177.186V157.269L171.407 159.005C175.02 161.11 177.439 161.366 178.662 159.83C179.942 158.35 180.597 155.249 180.597 150.554V128.276C180.597 122.471 181.166 117.891 182.304 114.505C183.442 111.119 185.69 108.985 189.076 108.017C185.69 103.152 183.442 98.4004 182.304 93.7341C181.166 89.0679 180.625 83.8326 180.625 78.0282V55.7497C180.625 51.055 179.971 47.2423 178.691 44.2548C177.496 41.3241 175.077 38.8203 171.435 36.7148L168.419 34.9792V15.0623L170.838 16.4564C175.902 19.3871 180.142 22.4884 183.527 25.7889C186.999 29.1179 189.73 32.6745 191.75 36.4018C193.856 40.186 195.335 44.2263 196.217 48.5227C197.099 52.7052 197.555 57.2292 197.555 62.0093V87.3038C197.555 91.9985 198.351 96.2664 199.973 100.079C201.595 103.92 204.213 106.879 207.826 108.956L207.798 128.759Z" fill="url(#paint0_linear_2007_922)"/>
<path opacity="0.07" d="M116.038 55.4936C119.652 57.5991 122.269 57.656 123.891 55.6643C125.513 53.7011 126.31 50.3721 126.31 45.6774V20.3829C126.31 15.5744 126.765 11.591 127.647 8.43277C128.529 5.1607 129.98 2.79912 132 1.40494C134.106 0.039204 136.837 -0.330682 140.223 0.295279C143.694 0.949692 147.962 2.74222 153.027 5.67285L155.445 7.06703V26.984L152.429 25.2483C148.816 23.1428 146.34 22.8583 145.06 24.3379C143.865 25.8743 143.239 28.9757 143.239 33.6704V55.9489C143.239 61.7532 142.67 66.3341 141.532 69.72C140.394 73.0774 138.146 75.2398 134.76 76.2072C138.146 81.0726 140.394 85.8243 141.532 90.4905C142.67 95.1568 143.211 100.392 143.211 106.196V128.475C143.211 133.17 143.808 136.982 145.032 139.913C146.312 142.9 148.787 145.433 152.401 147.51L155.417 149.245V169.162L152.998 167.768C147.934 164.838 143.666 161.708 140.195 158.379C136.809 155.078 134.077 151.55 131.972 147.766C129.952 144.039 128.501 140.027 127.619 135.702C126.736 131.519 126.281 126.995 126.281 122.215V96.9208C126.281 92.2261 125.485 87.9582 123.863 84.1455C122.241 80.3044 119.623 77.3453 116.01 75.2683L116.038 55.4936Z" fill="url(#paint1_linear_2007_922)"/>
<path opacity="0.4" d="M196.418 137.296C192.804 135.19 190.187 135.133 188.565 137.125C186.943 139.088 186.146 142.417 186.146 147.112V172.406C186.146 177.215 185.691 181.198 184.809 184.356C183.927 187.629 182.419 189.962 180.342 191.327C178.322 192.722 175.59 193.091 172.119 192.437C168.733 191.811 164.494 190.047 159.429 187.116L157.011 185.722V165.805L160.027 167.541C163.64 169.646 166.059 169.902 167.282 168.366C168.563 166.886 169.217 163.785 169.217 159.09V136.812C169.217 131.008 169.786 126.427 170.924 123.041C172.062 119.655 174.31 117.521 177.696 116.554C174.31 111.688 172.062 106.937 170.924 102.27C169.786 97.604 169.245 92.3687 169.245 86.5643V64.2858C169.245 59.5911 168.591 55.7785 167.311 52.7909C166.116 49.8603 163.697 47.3564 160.055 45.2509L157.039 43.5153V23.5984L159.458 24.9926C164.522 27.9232 168.762 31.0246 172.148 34.3251C175.619 37.654 178.35 41.2106 180.37 44.938C182.476 48.7222 183.956 52.7625 184.838 57.0588C185.72 61.2414 186.175 65.7654 186.175 70.5454V95.8399C186.175 100.535 186.972 104.803 188.593 108.615C190.215 112.456 192.833 115.415 196.446 117.492L196.418 137.296Z" fill="url(#paint2_linear_2007_922)"/>
<path opacity="0.4" d="M104.657 64.0297C108.271 66.1352 110.889 66.1921 112.51 64.2004C114.132 62.2372 114.929 58.9082 114.929 54.2135V28.919C114.929 24.1105 115.384 20.1271 116.266 16.9688C117.148 13.6968 118.599 11.3352 120.619 9.94101C122.725 8.57528 125.456 8.20539 128.842 8.83135C132.313 9.48576 136.581 11.2783 141.646 14.2089L144.064 15.6031V35.52L141.048 33.7844C137.435 31.6789 134.96 31.3944 133.679 32.8739C132.484 34.4104 131.858 37.5117 131.858 42.2064V64.4849C131.858 70.2893 131.289 74.8702 130.151 78.2561C129.013 81.6135 126.765 83.7759 123.379 84.7433C126.765 89.6087 129.013 94.3603 130.151 99.0266C131.289 103.693 131.83 108.928 131.83 114.733V137.011C131.83 141.706 132.427 145.518 133.651 148.449C134.931 151.437 137.406 153.969 141.02 156.046L144.036 157.782V177.698L141.618 176.304C136.553 173.374 132.285 170.244 128.814 166.915C125.428 163.614 122.696 160.086 120.591 156.302C118.571 152.575 117.12 148.563 116.238 144.238C115.356 140.055 114.9 135.531 114.9 130.751V105.457C114.9 100.762 114.104 96.4943 112.482 92.6816C110.86 88.8405 108.242 85.8814 104.629 83.8044L104.657 64.0297Z" fill="url(#paint3_linear_2007_922)"/>
<path opacity="0.15" d="M41.4865 3.48224L90.1122 31.5651L90.0838 148.022L41.458 119.939L41.4865 3.48224Z" fill="url(#paint4_linear_2007_922)"/>
<path d="M32.3506 21.3784L71.0179 43.7138V54.4405L32.3506 32.1051V21.3784Z" fill="#F2C94C"/>
<path opacity="0.15" d="M47.4971 67.9275L84.6564 89.3808V106.054L47.4971 84.6008V67.9275Z" fill="white"/>
<path opacity="0.15" d="M47.46 47.7544L84.6762 69.2362V73.1058L47.46 51.6524V47.7544Z" fill="white"/>
<path opacity="0.15" d="M47.46 55.3228L79.64 73.9024V77.772L47.46 59.1923V55.3228Z" fill="white"/>
<path opacity="0.2" d="M41.4941 3.48224L90.1199 31.5651V47.1857L41.4941 19.1028V3.48224Z" fill="url(#paint5_linear_2007_922)"/>
<path opacity="0.2" d="M53.6342 18.3916C53.6342 20.7531 52.24 21.8628 50.5329 20.8954C48.8257 19.8996 47.46 17.1966 47.46 14.835C47.46 12.4734 48.8541 11.3637 50.5613 12.3311C52.24 13.327 53.6342 16.03 53.6342 18.3916Z" fill="white"/>
<path opacity="0.15" d="M101.236 111.46L149.862 139.543L149.834 256L101.208 227.917L101.236 111.46Z" fill="url(#paint6_linear_2007_922)"/>
<path d="M119.757 145.348L158.424 167.654V178.353L119.729 156.046L119.757 145.348Z" fill="#F2994A"/>
<path opacity="0.15" d="M107.247 156.415L144.435 177.897V194.542L107.247 173.06V156.415Z" fill="white"/>
<path opacity="0.15" d="M107.185 180.202L144.401 201.684V205.553L107.185 184.1V180.202Z" fill="white"/>
<path opacity="0.15" d="M107.185 187.201L139.365 205.781V209.651L107.185 191.071V187.201Z" fill="white"/>
<path opacity="0.2" d="M101.244 111.46L149.87 139.543V155.164L101.244 127.081V111.46Z" fill="url(#paint7_linear_2007_922)"/>
<path opacity="0.2" d="M113.385 126.398C113.385 128.76 111.991 129.869 110.284 128.902C108.577 127.906 107.211 125.203 107.211 122.841C107.211 120.48 108.605 119.37 110.312 120.338C111.991 121.305 113.385 124.036 113.385 126.398Z" fill="white"/>
<path opacity="0.3" d="M92.8169 127.593L8.16992 78.7396L8.19837 122.87L85.3907 167.427L92.8738 178.495L92.8169 127.593Z" fill="url(#paint8_linear_2007_922)"/>
<path opacity="0.15" d="M71.0541 125.772L52.5029 115.074V118.943L71.0541 129.642V125.772Z" fill="white"/>
<path opacity="0.15" d="M71.0546 133.54L25.1318 107.022V110.891L71.0831 137.409L71.0546 133.54Z" fill="white"/>
<path opacity="0.15" d="M71.0833 141.307L15.6289 109.298V113.167L71.0833 145.177V141.307Z" fill="white"/>
<path d="M75.6357 132.458C75.6357 136.1 77.7982 140.282 80.4443 141.819C83.0904 143.355 85.2528 141.648 85.2528 138.006C85.2528 134.364 83.0904 130.182 80.4443 128.645C77.7697 127.109 75.6357 128.816 75.6357 132.458Z" fill="#F2994A"/>
<path opacity="0.15" d="M16.5336 47.7545L5.32324 41.2673V37.4831L16.5336 43.9703C17.4441 44.5109 18.7814 45.5637 19.9195 47.2139C21.143 48.978 22.025 51.1973 22.025 53.6158C22.025 56.2903 21.3421 57.7983 20.0618 58.2536C18.8383 58.6519 17.4157 57.9691 16.5336 57.4569L11.9243 54.7823L11.8958 54.7539C11.4975 54.5263 10.8715 54.2987 10.3878 54.4409C9.98949 54.5547 9.50579 54.9815 9.50579 56.4611C9.50579 57.9406 9.96104 58.8511 10.3594 59.3917C10.8431 60.0746 11.469 60.5583 11.8674 60.7574L11.9243 60.7859L26.0368 68.9233V72.7076L12.0096 64.5985C11.0422 64.0864 9.64806 63.0336 8.45304 61.3549C7.14422 59.5055 6.23373 57.1724 6.23373 54.5547C6.23373 51.9655 7.14422 50.6283 8.42459 50.2584C9.61961 49.9169 11.0138 50.4291 11.9812 50.9981L16.5621 53.6442C17.2165 54.0141 17.7286 54.1848 18.0416 54.071C18.2977 53.9857 18.7529 53.6158 18.7529 51.7095C18.7529 50.4575 18.3546 49.6609 17.9563 49.0918C17.501 48.4658 16.9035 47.9537 16.5336 47.7545Z" fill="white"/>
<path d="M8.65372 41.6656C8.65372 44.9092 6.74739 46.4172 4.41426 45.0799C2.08114 43.7426 0.174805 40.0153 0.174805 36.7717C0.174805 33.5281 2.08114 32.0201 4.41426 33.3574C6.74739 34.7231 8.65372 38.4504 8.65372 41.6656Z" fill="#F2C94C"/>
<path d="M31.1352 72.9635C31.1352 76.2072 29.2288 77.7151 26.8957 76.3779C24.5626 75.0406 22.6562 71.3133 22.6562 68.0697C22.6562 64.8261 24.5626 63.3181 26.8957 64.6553C29.2288 66.0211 31.1352 69.7484 31.1352 72.9635Z" fill="#F2C94C"/>
<path opacity="0.2" d="M61.3718 171.894C63.0789 172.889 64.4447 175.251 64.4447 177.243V185.921L70.1921 189.221C71.8993 190.217 73.265 192.579 73.265 194.57C73.265 196.534 71.8708 197.33 70.1921 196.363L64.4447 193.062V201.741C64.4447 203.704 63.0505 204.5 61.3718 203.533C59.6646 202.537 58.2989 200.176 58.2989 198.184V189.506L52.5514 186.205C50.8442 185.209 49.4785 182.848 49.4785 180.856C49.4785 178.893 50.8727 178.096 52.5514 179.064L58.2989 182.364V173.686C58.2989 171.694 59.6646 170.898 61.3718 171.894Z" fill="url(#paint9_linear_2007_922)"/>
<defs>
<linearGradient id="paint0_linear_2007_922" x1="225.698" y1="20.815" x2="155.525" y2="142.436" gradientUnits="userSpaceOnUse">
<stop stop-color="white"/>
<stop offset="1" stop-color="white" stop-opacity="0"/>
</linearGradient>
<linearGradient id="paint1_linear_2007_922" x1="191.958" y1="0.820746" x2="121.785" y2="122.441" gradientUnits="userSpaceOnUse">
<stop stop-color="white"/>
<stop offset="1" stop-color="white" stop-opacity="0"/>
</linearGradient>
<linearGradient id="paint2_linear_2007_922" x1="214.319" y1="29.3511" x2="144.145" y2="150.972" gradientUnits="userSpaceOnUse">
<stop stop-color="white"/>
<stop offset="1" stop-color="white" stop-opacity="0"/>
</linearGradient>
<linearGradient id="paint3_linear_2007_922" x1="180.577" y1="9.35676" x2="110.404" y2="130.977" gradientUnits="userSpaceOnUse">
<stop stop-color="white"/>
<stop offset="1" stop-color="white" stop-opacity="0"/>
</linearGradient>
<linearGradient id="paint4_linear_2007_922" x1="90.9945" y1="32.064" x2="44.5402" y2="112.546" gradientUnits="userSpaceOnUse">
<stop stop-color="white"/>
<stop offset="1" stop-color="white" stop-opacity="0"/>
</linearGradient>
<linearGradient id="paint5_linear_2007_922" x1="58.1778" y1="3.72002" x2="72.977" y2="45.6814" gradientUnits="userSpaceOnUse">
<stop stop-color="white"/>
<stop offset="1" stop-color="white" stop-opacity="0"/>
</linearGradient>
<linearGradient id="paint6_linear_2007_922" x1="150.742" y1="140.049" x2="104.288" y2="220.531" gradientUnits="userSpaceOnUse">
<stop stop-color="white"/>
<stop offset="1" stop-color="white" stop-opacity="0"/>
</linearGradient>
<linearGradient id="paint7_linear_2007_922" x1="117.926" y1="111.705" x2="132.725" y2="153.666" gradientUnits="userSpaceOnUse">
<stop stop-color="white"/>
<stop offset="1" stop-color="white" stop-opacity="0"/>
</linearGradient>
<linearGradient id="paint8_linear_2007_922" x1="74.3602" y1="109.933" x2="30.6423" y2="144.163" gradientUnits="userSpaceOnUse">
<stop stop-color="white"/>
<stop offset="1" stop-color="white" stop-opacity="0"/>
</linearGradient>
<linearGradient id="paint9_linear_2007_922" x1="67.3068" y1="182.979" x2="52.4055" y2="194.732" gradientUnits="userSpaceOnUse">
<stop stop-color="white"/>
<stop offset="1" stop-color="white" stop-opacity="0"/>
</linearGradient>
</defs>
</svg>
