<svg width="260" height="256" viewBox="0 0 260 256" fill="none" xmlns="http://www.w3.org/2000/svg">
<path opacity="0.07" d="M180.5 159.859C63.0411 8.61745 148.002 -45.9977 180.535 42.6087C213.068 -8.46497 298.029 144.27 180.5 159.859Z" fill="url(#paint0_linear_2007_987)"/>
<path opacity="0.4" d="M169.39 173.748C51.9307 22.5056 136.891 -32.1096 169.424 56.4968C201.957 5.42315 286.918 158.158 169.39 173.748Z" fill="url(#paint1_linear_2007_987)"/>
<path opacity="0.2" d="M34.5707 107.362C36.654 108.543 38.3205 111.459 38.3205 113.855V124.445L45.3341 128.472C47.4173 129.653 49.0839 132.569 49.0839 134.965C49.0839 137.361 47.4173 138.333 45.3341 137.152L38.3205 133.125V143.714C38.3205 146.11 36.654 147.082 34.5707 145.902C32.4875 144.721 30.8209 141.805 30.8209 139.409V128.819L23.8074 124.792C21.7242 123.611 20.0576 120.695 20.0576 118.299C20.0576 115.903 21.7242 114.931 23.8074 116.112L30.8209 120.139V109.55C30.8209 107.119 32.4875 106.147 34.5707 107.362Z" fill="url(#paint2_linear_2007_987)"/>
<path opacity="0.25" d="M63.1807 96.2864L128.073 133.75V253.986L63.1807 216.488V96.2864Z" fill="url(#paint3_linear_2007_987)"/>
<path opacity="0.15" d="M69.5684 167.637L121.684 197.705V202.427L69.5684 172.359V167.637Z" fill="white"/>
<path opacity="0.15" d="M73.2139 178.851L118.038 204.718V209.44L73.2139 183.573V178.851Z" fill="white"/>
<path d="M92.1365 201.524L47 175.449V188.886L92.1365 214.961V201.524Z" fill="#F2C94C"/>
<path d="M103.004 143.541C103.004 149.374 99.6363 152.117 95.4699 149.686C91.3034 147.256 87.9355 140.59 87.9355 134.757C87.9355 128.924 91.3034 126.181 95.4699 128.611C99.6363 131.041 103.004 137.708 103.004 143.541Z" fill="#F2C94C"/>
<path d="M95.47 154.374C88.769 150.45 83.2485 154.131 82.2416 162.568C82.068 164.026 83.179 165.97 84.5331 166.734L106.372 179.511C107.726 180.31 108.837 179.65 108.664 178.018C107.726 168.401 102.171 158.262 95.47 154.374Z" fill="#F2C94C"/>
<path opacity="0.25" d="M247.58 202.149L144.218 142.499V196.351L247.58 256V202.149Z" fill="url(#paint4_linear_2007_987)"/>
<path opacity="0.15" d="M177.792 181.004L207.547 198.191V202.913L177.792 185.726V181.004Z" fill="white"/>
<path opacity="0.15" d="M177.792 190.066L238.518 225.099V229.821L177.792 194.788V190.066Z" fill="white"/>
<path d="M259.177 218.954L214.04 192.879V206.315L259.177 232.39V218.954Z" fill="#F2994A"/>
<path d="M168.695 182.948C168.695 188.92 165.189 191.767 160.883 189.268C156.578 186.768 153.071 179.893 153.071 173.921C153.071 167.949 156.578 165.102 160.883 167.602C165.189 170.102 168.695 176.977 168.695 182.948Z" fill="#F2994A"/>
<path opacity="0.25" d="M104.185 73.6835L0.822266 14.0339V67.8852L104.185 127.535V73.6835Z" fill="url(#paint5_linear_2007_987)"/>
<path opacity="0.15" d="M34.4316 52.9554L85.2275 82.2942V87.0161L34.4316 57.6774V52.9554Z" fill="white"/>
<path opacity="0.15" d="M34.4316 62.0173L95.1576 97.0502V101.772L34.4316 66.7393V62.0173Z" fill="white"/>
<path d="M20.3702 42.2962C20.3702 41.706 19.9536 41.0116 19.4675 40.7338L15.4746 38.4423C14.9885 38.1645 14.5719 38.3728 14.5719 38.9631V42.9212C14.5719 43.7198 13.7039 44.2406 13.0095 43.8239L10.5443 42.4004C10.0582 42.1226 9.6416 42.331 9.6416 42.9212V48.8584C9.6416 49.4486 10.0582 50.143 10.5443 50.4208L14.0511 52.4346C14.3636 52.6082 14.5719 52.9554 14.5719 53.3373V58.5106C14.5719 59.1009 14.9885 59.7953 15.4746 60.0731L19.4675 62.3646C19.9536 62.6424 20.3702 62.434 20.3702 61.8438V57.8857C20.3702 57.0871 21.2382 56.5663 21.9326 56.9829L24.3978 58.4065C24.8838 58.6842 25.3005 58.4759 25.3005 57.8857V51.9485C25.3005 51.3582 24.8838 50.6638 24.3978 50.3861L20.891 48.3723C20.5785 48.1987 20.3702 47.8515 20.3702 47.4696V42.2962Z" fill="#F2994A"/>
<defs>
<linearGradient id="paint0_linear_2007_987" x1="237.878" y1="39.496" x2="137.52" y2="95.6764" gradientUnits="userSpaceOnUse">
<stop stop-color="white"/>
<stop offset="1" stop-color="white" stop-opacity="0"/>
</linearGradient>
<linearGradient id="paint1_linear_2007_987" x1="226.767" y1="53.3844" x2="126.409" y2="109.565" gradientUnits="userSpaceOnUse">
<stop stop-color="white"/>
<stop offset="1" stop-color="white" stop-opacity="0"/>
</linearGradient>
<linearGradient id="paint2_linear_2007_987" x1="41.8335" y1="120.887" x2="23.6549" y2="135.233" gradientUnits="userSpaceOnUse">
<stop stop-color="white"/>
<stop offset="1" stop-color="white" stop-opacity="0"/>
</linearGradient>
<linearGradient id="paint3_linear_2007_987" x1="135.011" y1="106.855" x2="77.4061" y2="206.655" gradientUnits="userSpaceOnUse">
<stop stop-color="white"/>
<stop offset="1" stop-color="white" stop-opacity="0"/>
</linearGradient>
<linearGradient id="paint4_linear_2007_987" x1="195.808" y1="153.728" x2="195.961" y2="243.311" gradientUnits="userSpaceOnUse">
<stop stop-color="white"/>
<stop offset="1" stop-color="white" stop-opacity="0"/>
</linearGradient>
<linearGradient id="paint5_linear_2007_987" x1="52.4144" y1="25.2629" x2="52.5669" y2="114.846" gradientUnits="userSpaceOnUse">
<stop stop-color="white"/>
<stop offset="1" stop-color="white" stop-opacity="0"/>
</linearGradient>
</defs>
</svg>
