<svg width="272" height="256" viewBox="0 0 272 256" fill="none" xmlns="http://www.w3.org/2000/svg">
<path opacity="0.2" d="M121.047 67.4804L54.6752 29.9366L54.3672 64.3389L120.739 101.883L121.047 67.4804Z" fill="url(#paint0_linear_2007_955)"/>
<path opacity="0.15" d="M71.5845 47.8308L91.5422 59.134L91.5114 63.261L71.5537 51.9579L71.5845 47.8308Z" fill="white"/>
<path opacity="0.15" d="M71.522 56.1156L114.024 80.1695L113.994 84.3581L71.4912 60.3042L71.522 56.1156Z" fill="white"/>
<path d="M68.0422 49.0936C68.0114 51.927 66.3175 53.2822 64.2232 52.081C62.1289 50.9107 60.4657 47.646 60.4965 44.8125C60.5273 41.979 62.2212 40.6239 64.3156 41.825C66.4099 42.9954 68.073 46.2601 68.0422 49.0936Z" fill="#F2C94C"/>
<path opacity="0.2" d="M271.961 221.598L205.62 184.054L205.312 218.456L271.684 256L271.961 221.598Z" fill="url(#paint1_linear_2007_955)"/>
<path opacity="0.15" d="M222.529 201.948L242.487 213.251L242.456 217.378L222.498 206.075L222.529 201.948Z" fill="white"/>
<path opacity="0.15" d="M222.467 210.233L264.97 234.287L264.939 238.476L222.437 214.422L222.467 210.233Z" fill="white"/>
<path d="M218.987 203.211C218.956 206.044 217.262 207.4 215.168 206.198C213.073 205.028 211.41 201.763 211.441 198.93C211.472 196.096 213.166 194.741 215.26 195.942C217.354 197.113 219.017 200.377 218.987 203.211Z" fill="#F2C94C"/>
<path opacity="0.1" d="M194.563 1.35533C182.059 3.78844 153.94 6.92992 141.682 0.000183105C141.774 49.0319 153.786 118.607 193.054 175.985C232.939 163.388 246.028 108.043 246.952 59.5959C234.694 52.6354 206.914 17.8635 194.563 1.35533Z" fill="url(#paint2_linear_2007_955)"/>
<path opacity="0.3" d="M179.287 11.519C166.783 13.9521 138.663 17.0936 126.405 10.1638C126.498 59.1956 138.509 128.77 177.778 186.148C217.662 173.552 230.752 118.175 231.676 69.7596C219.418 62.799 191.637 28.0271 179.287 11.519Z" fill="url(#paint3_linear_2007_955)"/>
<path opacity="0.4" d="M231.707 69.7288C219.418 62.7683 191.668 28.0272 179.318 11.519L177.809 186.118C217.662 173.552 230.752 118.175 231.707 69.7288Z" fill="url(#paint4_linear_2007_955)"/>
<path opacity="0.1" d="M112.608 104.162L174.422 138.195L174.452 251.75L112.639 217.748L112.608 104.162Z" fill="url(#paint5_linear_2007_955)"/>
<path opacity="0.2" d="M120.615 170.533L167.214 196.189L167.337 236.905L120.738 211.249L120.615 170.533Z" fill="url(#paint6_linear_2007_955)"/>
<path opacity="0.15" d="M121.447 143.43L143.006 155.288V159.477L121.447 147.619V143.43Z" fill="white"/>
<path opacity="0.15" d="M121.539 151.746L143.098 163.604V167.792L121.539 155.935V151.746Z" fill="white"/>
<path opacity="0.15" d="M121.509 159.754L162.41 182.268V186.456L121.509 163.942V159.754Z" fill="white"/>
<path opacity="0.2" d="M112.608 104.162L174.422 138.195L174.483 157.813L112.639 123.812L112.608 104.162Z" fill="url(#paint7_linear_2007_955)"/>
<path opacity="0.2" d="M128.069 122.61C128.069 125.567 126.313 127.015 124.157 125.813C122.001 124.612 120.215 121.255 120.215 118.268C120.215 115.311 121.97 113.863 124.126 115.065C126.313 116.266 128.069 119.654 128.069 122.61Z" fill="white"/>
<path d="M149.32 170.164L149.259 153.286L191.176 176.354L191.238 193.232L149.32 170.164Z" fill="#F2C94C"/>
<path opacity="0.3" d="M101.459 98.8952L9.80176 46.0136L9.83256 93.7826L93.3898 142.014L101.49 153.994L101.459 98.8952Z" fill="url(#paint8_linear_2007_955)"/>
<path d="M0.0380859 64.6161V51.6498L34.6252 71.6074V84.5737L0.0380859 64.6161Z" fill="#F2994A"/>
<path opacity="0.15" d="M77.8972 96.9242L57.8164 85.3438V89.5325L77.8972 101.113V96.9242Z" fill="white"/>
<path opacity="0.15" d="M77.8977 105.332L39.1836 83.0031V87.1918L77.8977 109.521V105.332Z" fill="white"/>
<path opacity="0.15" d="M77.8978 113.71L30.9912 86.6373V90.826L77.8978 117.898V113.71Z" fill="white"/>
<path d="M82.8252 104.162C82.8252 108.104 85.1659 112.632 88.0302 114.295C90.8945 115.958 93.2352 114.11 93.2352 110.168C93.2352 106.225 90.8945 101.698 88.0302 100.035C85.1659 98.3717 82.8252 100.22 82.8252 104.162Z" fill="#F2994A"/>
<path opacity="0.2" d="M71.954 148.112C73.8019 149.159 75.2803 151.746 75.2803 153.871V163.265L81.5016 166.837C83.3496 167.885 84.8279 170.472 84.8279 172.597C84.8279 174.722 83.3496 175.584 81.5016 174.537L75.2803 170.965V180.358C75.2803 182.483 73.8019 183.346 71.954 182.299C70.1061 181.251 68.6277 178.664 68.6277 176.539V167.145L62.4064 163.542C60.5584 162.495 59.0801 159.908 59.0801 157.783C59.0801 155.658 60.5584 154.795 62.4064 155.842L68.6277 159.415V150.021C68.6277 147.927 70.1061 147.065 71.954 148.112Z" fill="url(#paint9_linear_2007_955)"/>
<defs>
<linearGradient id="paint0_linear_2007_955" x1="95.1116" y1="52.8094" x2="80.2945" y2="78.9944" gradientUnits="userSpaceOnUse">
<stop stop-color="white"/>
<stop offset="1" stop-color="white" stop-opacity="0"/>
</linearGradient>
<linearGradient id="paint1_linear_2007_955" x1="246.05" y1="206.929" x2="231.233" y2="233.114" gradientUnits="userSpaceOnUse">
<stop stop-color="white"/>
<stop offset="1" stop-color="white" stop-opacity="0"/>
</linearGradient>
<linearGradient id="paint2_linear_2007_955" x1="113.949" y1="17.1916" x2="199.742" y2="93.9765" gradientUnits="userSpaceOnUse">
<stop stop-color="white"/>
<stop offset="1" stop-color="white" stop-opacity="0"/>
</linearGradient>
<linearGradient id="paint3_linear_2007_955" x1="98.6752" y1="27.347" x2="184.469" y2="104.132" gradientUnits="userSpaceOnUse">
<stop stop-color="white"/>
<stop offset="1" stop-color="white" stop-opacity="0"/>
</linearGradient>
<linearGradient id="paint4_linear_2007_955" x1="236.156" y1="87.7951" x2="167.332" y2="100.967" gradientUnits="userSpaceOnUse">
<stop stop-color="white"/>
<stop offset="1" stop-color="white" stop-opacity="0"/>
</linearGradient>
<linearGradient id="paint5_linear_2007_955" x1="112.976" y1="148.323" x2="177.797" y2="211.229" gradientUnits="userSpaceOnUse">
<stop stop-color="white"/>
<stop offset="1" stop-color="white" stop-opacity="0"/>
</linearGradient>
<linearGradient id="paint6_linear_2007_955" x1="128.833" y1="171.43" x2="156.597" y2="230.638" gradientUnits="userSpaceOnUse">
<stop stop-color="white"/>
<stop offset="1" stop-color="white" stop-opacity="0"/>
</linearGradient>
<linearGradient id="paint7_linear_2007_955" x1="133.576" y1="104.105" x2="152.917" y2="156.346" gradientUnits="userSpaceOnUse">
<stop stop-color="white"/>
<stop offset="1" stop-color="white" stop-opacity="0"/>
</linearGradient>
<linearGradient id="paint8_linear_2007_955" x1="81.4597" y1="79.7673" x2="34.1369" y2="116.82" gradientUnits="userSpaceOnUse">
<stop stop-color="white"/>
<stop offset="1" stop-color="white" stop-opacity="0"/>
</linearGradient>
<linearGradient id="paint9_linear_2007_955" x1="78.3885" y1="160.131" x2="62.2629" y2="172.857" gradientUnits="userSpaceOnUse">
<stop stop-color="white"/>
<stop offset="1" stop-color="white" stop-opacity="0"/>
</linearGradient>
</defs>
</svg>
