<svg width="186" height="56" viewBox="0 0 186 56" fill="none" xmlns="http://www.w3.org/2000/svg">
<g clip-path="url(#clip0_2007_5259)">
<path d="M178.749 0.5H6.87497C3.07803 0.5 0 3.57803 0 7.37497V48.6248C0 52.4217 3.07803 55.4997 6.87497 55.4997H178.749C182.546 55.4997 185.624 52.4217 185.624 48.6248V7.37497C185.624 3.57803 182.546 0.5 178.749 0.5Z" fill="black"/>
<path d="M178.749 1.59972C180.28 1.60149 181.748 2.21053 182.831 3.29323C183.913 4.37593 184.522 5.84386 184.524 7.37497V48.6248C184.522 50.1559 183.913 51.6238 182.831 52.7065C181.748 53.7892 180.28 54.3982 178.749 54.4H6.87497C5.34384 54.3982 3.87594 53.7892 2.7933 52.7065C1.71065 51.6238 1.10169 50.1559 1.09999 48.6248V7.37497C1.10166 5.84383 1.71062 4.37589 2.79327 3.29319C3.87592 2.21049 5.34383 1.60146 6.87497 1.59972H178.749ZM178.749 0.5H6.87497C5.05325 0.505332 3.30767 1.23137 2.01952 2.51952C0.731369 3.80767 0.00533236 5.55325 0 7.37497L0 48.6248C0.00533236 50.4465 0.731369 52.1921 2.01952 53.4802C3.30767 54.7684 5.05325 55.4944 6.87497 55.4997H178.749C180.571 55.4944 182.316 54.7684 183.605 53.4802C184.893 52.1921 185.619 50.4465 185.624 48.6248V7.37497C185.619 5.55325 184.893 3.80767 183.605 2.51952C182.316 1.23137 180.571 0.505332 178.749 0.5Z" fill="#A6A6A6"/>
<path d="M65.2001 14.5846C65.2251 15.0892 65.1471 15.5935 64.971 16.067C64.7948 16.5404 64.5241 16.9731 64.1754 17.3386C63.7847 17.7439 63.3127 18.0621 62.7904 18.2725C62.2682 18.4828 61.7074 18.5805 61.1448 18.5592C60.5786 18.5643 60.0171 18.4561 59.4933 18.2411C58.9695 18.026 58.494 17.7084 58.0947 17.307C57.6954 16.9055 57.3804 16.4283 57.1681 15.9034C56.9559 15.3785 56.8507 14.8164 56.8588 14.2502C56.8508 13.6841 56.956 13.122 57.1683 12.597C57.3805 12.0721 57.6955 11.5949 58.0948 11.1934C58.4941 10.7919 58.9696 10.4742 59.4934 10.2591C60.0171 10.044 60.5786 9.93567 61.1448 9.94059C61.727 9.93883 62.3033 10.0565 62.8381 10.2864C63.3349 10.4878 63.777 10.8036 64.1286 11.2082L63.4034 11.9339C63.127 11.6087 62.7797 11.3512 62.3881 11.1815C61.9965 11.0118 61.5711 10.9343 61.1448 10.9551C60.7157 10.9528 60.2906 11.0372 59.8949 11.2032C59.4991 11.3692 59.141 11.6133 58.8419 11.921C58.5427 12.2287 58.3088 12.5935 58.154 12.9938C57.9992 13.394 57.9268 13.8214 57.9411 14.2502C57.9309 14.8926 58.1116 15.5236 58.4605 16.0631C58.8093 16.6026 59.3105 17.0264 59.9005 17.2807C60.4905 17.535 61.1427 17.6084 61.7745 17.4915C62.4062 17.3747 62.9891 17.0728 63.449 16.6243C63.8724 16.1681 64.1178 15.5751 64.1405 14.9531H61.1448V13.9622H65.1423C65.1801 14.1675 65.1995 14.3758 65.2001 14.5846Z" fill="white"/>
<path d="M71.5378 11.139H67.7808V13.7547H71.1687V14.7458H67.7808V17.3614H71.5378V18.3752H66.7214V10.1253H71.5378V11.139Z" fill="white"/>
<path d="M76.008 18.3752H74.9471V11.139H72.6429V10.1253H78.3122V11.139H76.008V18.3752Z" fill="white"/>
<path d="M82.4143 18.3752V10.1253H83.4738V18.3752H82.4143Z" fill="white"/>
<path d="M88.1761 18.3752H87.1153V11.139H84.8112V10.1253H90.4803V11.139H88.1761V18.3752Z" fill="white"/>
<path d="M101.212 17.309C100.409 18.1096 99.3217 18.5592 98.1878 18.5592C97.0539 18.5592 95.9663 18.1096 95.1633 17.309C94.766 16.9067 94.4537 16.4285 94.245 15.9031C94.0362 15.3776 93.9352 14.8155 93.948 14.2502C93.9352 13.685 94.0362 13.1229 94.245 12.5974C94.4537 12.0719 94.766 11.5938 95.1633 11.1914C95.5602 10.7944 96.0315 10.4796 96.5502 10.2649C97.0689 10.0503 97.6249 9.94009 98.1863 9.94059C98.7476 9.94109 99.3034 10.0523 99.8218 10.2679C100.34 10.4834 100.811 10.7991 101.207 11.1968C101.605 11.5981 101.917 12.0751 102.127 12.5997C102.337 13.1242 102.439 13.6855 102.428 14.2502C102.44 14.8155 102.339 15.3775 102.13 15.9029C101.921 16.4283 101.609 16.9065 101.212 17.309ZM95.946 16.6182C96.5408 17.212 97.3468 17.5454 98.1871 17.5454C99.0275 17.5454 99.8335 17.212 100.428 16.6182C100.733 16.306 100.972 15.9352 101.129 15.5282C101.287 15.1212 101.36 14.6864 101.345 14.2502C101.36 13.814 101.287 13.3793 101.129 12.9723C100.972 12.5653 100.733 12.1945 100.428 11.8822C99.8335 11.2885 99.0275 10.955 98.1871 10.955C97.3468 10.955 96.5408 11.2885 95.946 11.8822C95.6415 12.1947 95.4034 12.5656 95.246 12.9726C95.0886 13.3795 95.0152 13.8142 95.0303 14.2502C95.0152 14.6863 95.0886 15.1209 95.246 15.5279C95.4034 15.9349 95.6415 16.3058 95.946 16.6182Z" fill="white"/>
<path d="M103.915 18.3752V10.1253H105.206L109.215 16.543H109.261L109.215 14.9531V10.1253H110.276V18.3752H109.17L104.975 11.6465H104.929L104.975 13.2364V18.3752H103.915Z" fill="white"/>
<path d="M65.2001 14.5846C65.2251 15.0892 65.1471 15.5935 64.971 16.067C64.7948 16.5404 64.5241 16.9731 64.1754 17.3386C63.7847 17.7439 63.3127 18.0621 62.7904 18.2725C62.2682 18.4828 61.7074 18.5805 61.1448 18.5592C60.5786 18.5643 60.0171 18.4561 59.4933 18.2411C58.9695 18.026 58.494 17.7084 58.0947 17.307C57.6954 16.9055 57.3804 16.4283 57.1681 15.9034C56.9559 15.3785 56.8507 14.8164 56.8588 14.2502C56.8508 13.6841 56.956 13.122 57.1683 12.597C57.3805 12.0721 57.6955 11.5949 58.0948 11.1934C58.4941 10.7919 58.9696 10.4742 59.4934 10.2591C60.0171 10.044 60.5786 9.93567 61.1448 9.94059C61.727 9.93883 62.3033 10.0565 62.8381 10.2864C63.3349 10.4878 63.777 10.8036 64.1286 11.2082L63.4034 11.9339C63.127 11.6087 62.7797 11.3512 62.3881 11.1815C61.9965 11.0118 61.5711 10.9343 61.1448 10.9551C60.7157 10.9528 60.2906 11.0372 59.8949 11.2032C59.4991 11.3692 59.141 11.6133 58.8419 11.921C58.5427 12.2287 58.3088 12.5935 58.154 12.9938C57.9992 13.394 57.9268 13.8214 57.9411 14.2502C57.9309 14.8926 58.1116 15.5236 58.4605 16.0631C58.8093 16.6026 59.3105 17.0264 59.9005 17.2807C60.4905 17.535 61.1427 17.6084 61.7745 17.4915C62.4062 17.3747 62.9891 17.0728 63.449 16.6243C63.8724 16.1681 64.1178 15.5751 64.1405 14.9531H61.1448V13.9622H65.1423C65.1801 14.1675 65.1995 14.3758 65.2001 14.5846Z" stroke="white" stroke-width="0.2" stroke-miterlimit="10"/>
<path d="M71.5378 11.139H67.7808V13.7547H71.1687V14.7458H67.7808V17.3614H71.5378V18.3752H66.7214V10.1253H71.5378V11.139Z" stroke="white" stroke-width="0.2" stroke-miterlimit="10"/>
<path d="M76.008 18.3752H74.9471V11.139H72.6429V10.1253H78.3122V11.139H76.008V18.3752Z" stroke="white" stroke-width="0.2" stroke-miterlimit="10"/>
<path d="M82.4143 18.3752V10.1253H83.4738V18.3752H82.4143Z" stroke="white" stroke-width="0.2" stroke-miterlimit="10"/>
<path d="M88.1761 18.3752H87.1153V11.139H84.8112V10.1253H90.4803V11.139H88.1761V18.3752Z" stroke="white" stroke-width="0.2" stroke-miterlimit="10"/>
<path d="M101.212 17.309C100.409 18.1096 99.3217 18.5592 98.1878 18.5592C97.0539 18.5592 95.9663 18.1096 95.1633 17.309C94.766 16.9067 94.4537 16.4285 94.245 15.9031C94.0362 15.3776 93.9352 14.8155 93.948 14.2502C93.9352 13.685 94.0362 13.1229 94.245 12.5974C94.4537 12.0719 94.766 11.5938 95.1633 11.1914C95.5602 10.7944 96.0315 10.4796 96.5502 10.2649C97.0689 10.0503 97.6249 9.94009 98.1863 9.94059C98.7476 9.94109 99.3034 10.0523 99.8218 10.2679C100.34 10.4834 100.811 10.7991 101.207 11.1968C101.605 11.5981 101.917 12.0751 102.127 12.5997C102.337 13.1242 102.439 13.6855 102.428 14.2502C102.44 14.8155 102.339 15.3775 102.13 15.9029C101.921 16.4283 101.609 16.9065 101.212 17.309ZM95.946 16.6182C96.5408 17.212 97.3468 17.5454 98.1871 17.5454C99.0275 17.5454 99.8335 17.212 100.428 16.6182C100.733 16.306 100.972 15.9352 101.129 15.5282C101.287 15.1212 101.36 14.6864 101.345 14.2502C101.36 13.814 101.287 13.3793 101.129 12.9723C100.972 12.5653 100.733 12.1945 100.428 11.8822C99.8335 11.2885 99.0275 10.955 98.1871 10.955C97.3468 10.955 96.5408 11.2885 95.946 11.8822C95.6415 12.1947 95.4034 12.5656 95.246 12.9726C95.0886 13.3795 95.0152 13.8142 95.0303 14.2502C95.0152 14.6863 95.0886 15.1209 95.246 15.5279C95.4034 15.9349 95.6415 16.3058 95.946 16.6182Z" stroke="white" stroke-width="0.2" stroke-miterlimit="10"/>
<path d="M103.915 18.3752V10.1253H105.206L109.215 16.543H109.261L109.215 14.9531V10.1253H110.276V18.3752H109.17L104.975 11.6465H104.929L104.975 13.2364V18.3752H103.915Z" stroke="white" stroke-width="0.2" stroke-miterlimit="10"/>
<path d="M93.6862 30.4084C92.5305 30.4128 91.402 30.7595 90.4432 31.4048C89.4844 32.05 88.7383 32.9649 88.2991 34.0339C87.8599 35.1029 87.7472 36.278 87.9754 37.411C88.2035 38.5439 88.7623 39.5839 89.581 40.3995C90.3998 41.2152 91.4418 41.77 92.5757 41.9938C93.7095 42.2177 94.8842 42.1005 95.9515 41.6573C97.0188 41.214 97.9309 40.4644 98.5725 39.5031C99.2141 38.5419 99.5565 37.4121 99.5565 36.2564C99.5678 35.4834 99.4236 34.716 99.1323 33.9999C98.841 33.2838 98.4087 32.6336 97.861 32.088C97.3133 31.5424 96.6615 31.1125 95.9443 30.824C95.2271 30.5354 94.4592 30.3941 93.6862 30.4084ZM93.6862 39.8007C92.9745 39.8515 92.264 39.6868 91.6472 39.328C91.0303 38.9693 90.5358 38.4332 90.228 37.7895C89.9201 37.1458 89.8132 36.4243 89.9212 35.719C90.0291 35.0136 90.3469 34.3572 90.8331 33.835C91.3194 33.3128 91.9516 32.9491 92.6475 32.7913C93.3433 32.6334 94.0706 32.6887 94.7346 32.95C95.3986 33.2113 95.9685 33.6664 96.3702 34.2561C96.7719 34.8459 96.9867 35.5429 96.9867 36.2564C97.0083 36.7072 96.9395 37.1577 96.7844 37.5815C96.6292 38.0053 96.3909 38.3937 96.0833 38.724C95.7758 39.0543 95.4052 39.3197 94.9936 39.5046C94.5819 39.6895 94.1374 39.7902 93.6862 39.8007ZM80.8803 30.4084C79.7246 30.4128 78.5961 30.7594 77.6373 31.4047C76.6785 32.0499 75.9324 32.9648 75.4931 34.0338C75.0539 35.1028 74.9412 36.2779 75.1694 37.4109C75.3975 38.5439 75.9562 39.5838 76.775 40.3995C77.5937 41.2152 78.6358 41.7699 79.7696 41.9938C80.9034 42.2177 82.0782 42.1006 83.1455 41.6573C84.2128 41.214 85.1248 40.4644 85.7665 39.5031C86.4081 38.5419 86.7505 37.4121 86.7505 36.2564C86.7618 35.4834 86.6176 34.716 86.3263 33.9999C86.0351 33.2839 85.6027 32.6337 85.0551 32.0881C84.5074 31.5424 83.8556 31.1126 83.1384 30.824C82.4212 30.5355 81.6533 30.3941 80.8803 30.4084ZM80.8803 39.8007C80.1686 39.8515 79.4581 39.6868 78.8413 39.328C78.2245 38.9693 77.73 38.4332 77.4221 37.7895C77.1143 37.1458 77.0073 36.4243 77.1153 35.719C77.2232 35.0136 77.541 34.3572 78.0273 33.835C78.5135 33.3128 79.1458 32.9491 79.8416 32.7913C80.5375 32.6334 81.2647 32.6887 81.9287 32.95C82.5927 33.2113 83.1626 33.6664 83.5643 34.2561C83.966 34.8459 84.1809 35.5429 84.1809 36.2564C84.2025 36.7072 84.1337 37.1577 83.9786 37.5815C83.8234 38.0053 83.585 38.3938 83.2775 38.724C82.9699 39.0543 82.5994 39.3197 82.1877 39.5046C81.776 39.6895 81.3315 39.7902 80.8803 39.8007ZM65.6471 32.2028V34.6837H71.5839C71.4982 35.8473 71.022 36.948 70.2325 37.8071C69.6376 38.4135 68.9221 38.8885 68.1323 39.2013C67.3425 39.5142 66.4959 39.658 65.6471 39.6235C63.9118 39.6 62.2556 38.8942 61.0368 37.6587C59.818 36.4233 59.1346 34.7577 59.1346 33.0223C59.1346 31.2868 59.818 29.6212 61.0368 28.3858C62.2556 27.1504 63.9118 26.4446 65.6471 26.4211C67.3139 26.3993 68.9219 27.0361 70.1219 28.1932L71.8718 26.4432C71.0531 25.6327 70.0808 24.9937 69.0119 24.5639C67.943 24.1341 66.799 23.922 65.6471 23.94C64.4432 23.9225 63.248 24.1445 62.1307 24.593C61.0134 25.0416 59.9965 25.7078 59.139 26.5529C58.2815 27.398 57.6005 28.4051 57.1358 29.5158C56.671 30.6264 56.4316 31.8183 56.4316 33.0223C56.4316 34.2262 56.671 35.4182 57.1358 36.5288C57.6005 37.6394 58.2815 38.6465 59.139 39.4916C59.9965 40.3368 61.0134 41.0029 62.1307 41.4515C63.248 41.9001 64.4432 42.122 65.6471 42.1045C66.8233 42.1533 67.9965 41.9514 69.0888 41.5122C70.181 41.073 71.1674 40.4065 71.9825 39.5571C73.4295 37.9776 74.2009 35.8944 74.1313 33.7534C74.137 33.2334 74.0924 32.7141 73.9982 32.2028H65.6471ZM127.946 34.1298C127.594 33.0706 126.925 32.1452 126.03 31.4794C125.134 30.8136 124.055 30.4397 122.939 30.4084C122.188 30.4131 121.445 30.5701 120.756 30.8699C120.067 31.1697 119.446 31.6061 118.931 32.1527C118.415 32.6993 118.016 33.3448 117.757 34.0501C117.498 34.7555 117.384 35.506 117.424 36.2564C117.407 37.0253 117.545 37.7897 117.83 38.5039C118.115 39.2182 118.541 39.8676 119.083 40.4135C119.625 40.9594 120.271 41.3905 120.983 41.681C121.695 41.9715 122.458 42.1156 123.227 42.1045C124.191 42.1098 125.14 41.8758 125.991 41.4235C126.842 40.9711 127.566 40.3146 128.101 39.5128L126.107 38.1837C125.808 38.6797 125.386 39.0896 124.881 39.373C124.376 39.6565 123.806 39.8039 123.227 39.8007C122.632 39.8235 122.043 39.6667 121.537 39.3507C121.031 39.0348 120.632 38.5741 120.392 38.0286L128.212 34.7945L127.946 34.1298ZM119.971 36.0793C119.944 35.6537 120.001 35.2268 120.141 34.8237C120.28 34.4206 120.498 34.0494 120.783 33.7317C121.068 33.414 121.413 33.1563 121.798 32.9737C122.184 32.791 122.602 32.6871 123.028 32.6679C123.472 32.6387 123.914 32.7408 124.3 32.9614C124.686 33.182 124.999 33.5114 125.199 33.9085L119.971 36.0793ZM113.613 41.75H116.183V24.5604H113.613V41.75ZM109.405 31.7153H109.316C108.925 31.2909 108.449 30.9547 107.918 30.7294C107.387 30.504 106.814 30.3946 106.237 30.4084C104.729 30.4726 103.304 31.1168 102.26 32.2065C101.215 33.2962 100.632 34.7471 100.632 36.2565C100.632 37.7658 101.215 39.2168 102.26 40.3065C103.304 41.3962 104.729 42.0403 106.237 42.1045C106.816 42.1199 107.391 42.009 107.923 41.7795C108.455 41.5499 108.93 41.2073 109.316 40.7754H109.405V41.6172C109.405 43.8546 108.208 45.0507 106.281 45.0507C105.639 45.0353 105.016 44.8291 104.491 44.4583C103.966 44.0874 103.564 43.5688 103.335 42.9684L101.098 43.8989C101.519 44.9255 102.238 45.8029 103.162 46.4186C104.085 47.0342 105.171 47.3601 106.281 47.3545C109.294 47.3545 111.841 45.5824 111.841 41.2627V30.7627H109.405V31.7153ZM106.459 39.8007C105.57 39.7254 104.743 39.3194 104.14 38.663C103.537 38.0067 103.202 37.1478 103.202 36.2565C103.202 35.3651 103.537 34.5063 104.14 33.8499C104.743 33.1935 105.57 32.7875 106.459 32.7122C106.9 32.7338 107.333 32.8441 107.732 33.0366C108.13 33.2291 108.486 33.4998 108.777 33.8326C109.068 34.1654 109.29 34.5535 109.428 34.9737C109.566 35.3939 109.619 35.8377 109.582 36.2785C109.616 36.7166 109.562 37.1572 109.423 37.5739C109.283 37.9906 109.061 38.3749 108.769 38.7037C108.477 39.0325 108.123 39.2991 107.726 39.4876C107.329 39.6761 106.898 39.7826 106.459 39.8007ZM139.982 24.5607H133.834V41.75H136.4V35.2375H139.982C140.708 35.2773 141.434 35.1687 142.116 34.9184C142.799 34.6681 143.423 34.2813 143.95 33.7817C144.478 33.2821 144.899 32.6801 145.186 32.0125C145.473 31.345 145.621 30.6259 145.621 29.8991C145.621 29.1724 145.473 28.4532 145.186 27.7857C144.899 27.1181 144.478 26.5161 143.95 26.0165C143.423 25.5169 142.799 25.1301 142.116 24.8798C141.434 24.6295 140.708 24.5209 139.982 24.5607ZM140.049 32.8453H136.4V26.9531H140.049C140.441 26.9449 140.83 27.0151 141.195 27.1595C141.559 27.3039 141.891 27.5197 142.172 27.794C142.452 28.0684 142.674 28.3959 142.826 28.7574C142.978 29.1189 143.056 29.5071 143.056 29.8992C143.056 30.2913 142.978 30.6795 142.826 31.0409C142.674 31.4024 142.452 31.73 142.172 32.0043C141.891 32.2787 141.559 32.4944 141.195 32.6388C140.83 32.7832 140.441 32.8534 140.049 32.8453ZM155.905 30.3768C154.968 30.3221 154.036 30.542 153.223 31.0095C152.41 31.477 151.751 32.1717 151.327 33.0084L153.605 33.9593C153.83 33.544 154.172 33.2036 154.589 32.9797C155.005 32.7558 155.478 32.6582 155.949 32.6987C156.599 32.6352 157.249 32.8323 157.755 33.2468C158.26 33.6614 158.581 34.2595 158.647 34.9101V35.0871C157.823 34.6494 156.904 34.4215 155.971 34.4237C153.516 34.4237 151.017 35.7727 151.017 38.2937C151.041 38.825 151.171 39.3461 151.401 39.8261C151.63 40.3061 151.953 40.7352 152.351 41.0879C152.749 41.4405 153.214 41.7097 153.718 41.8793C154.222 42.0489 154.755 42.1155 155.285 42.0752C155.931 42.1133 156.576 41.9774 157.151 41.6818C157.727 41.3862 158.213 40.9417 158.558 40.3946H158.647V41.7214H161.123V35.1314C161.123 32.0796 158.846 30.3768 155.905 30.3768ZM155.595 39.7974C154.754 39.7974 153.582 39.3774 153.582 38.3379C153.582 37.0111 155.042 36.5024 156.303 36.5024C157.121 36.4806 157.931 36.6792 158.647 37.0774C158.552 37.823 158.191 38.5092 157.63 39.0092C157.069 39.5093 156.346 39.7892 155.595 39.7974ZM170.146 30.7527L167.205 38.2052H167.116L164.065 30.7527H161.3L165.878 41.1686L163.269 46.9625H165.944L172.999 30.7527H170.146ZM147.037 41.75H149.602V24.5607H147.037V41.75Z" fill="white"/>
<path d="M14.3484 10.865C13.8975 11.4041 13.6698 12.0952 13.712 12.7967V43.2062C13.6697 43.9077 13.8974 44.5989 14.3484 45.1379L14.4501 45.237L31.4849 28.2024V27.8005L14.4501 10.7651L14.3484 10.865Z" fill="url(#paint0_linear_2007_5259)"/>
<path d="M37.1632 33.8829L31.4854 28.2023V27.8004L37.1646 22.1211L37.2926 22.1941L44.0202 26.0167C45.9419 27.1085 45.9419 28.8949 44.0202 29.9873L37.2926 33.8099L37.1632 33.8829Z" fill="url(#paint1_linear_2007_5259)"/>
<path d="M37.2925 33.8093L31.4852 28.0015L14.3486 45.1379C14.7402 45.4832 15.2402 45.6807 15.7621 45.6961C16.2839 45.7115 16.7947 45.5439 17.206 45.2223L37.2925 33.8093Z" fill="url(#paint2_linear_2007_5259)"/>
<path d="M37.2925 22.1935L17.206 10.7805C16.7947 10.4588 16.2839 10.2912 15.7621 10.3066C15.2402 10.3221 14.7402 10.5195 14.3486 10.8649L31.4852 28.0014L37.2925 22.1935Z" fill="url(#paint3_linear_2007_5259)"/>
<path opacity="0.2" d="M37.1644 33.6812L17.206 45.0211C16.8106 45.3222 16.328 45.4864 15.831 45.4891C15.334 45.4917 14.8497 45.3326 14.4511 45.0358L14.3486 45.1383L14.4504 45.2374L14.4511 45.2367C14.8496 45.5337 15.334 45.6929 15.831 45.6902C16.328 45.6875 16.8106 45.5232 17.206 45.222L37.2925 33.809L37.1644 33.6812Z" fill="black"/>
<path opacity="0.12" d="M14.3483 44.9376C13.8975 44.3985 13.6699 43.7074 13.712 43.0059V43.2067C13.6698 43.9083 13.8975 44.5994 14.3483 45.1385L14.4508 45.036L14.3483 44.9376Z" fill="black"/>
<path opacity="0.12" d="M44.0196 29.7857L37.1641 33.6814L37.2921 33.8092L44.0196 29.9866C44.4154 29.8149 44.7578 29.5402 45.0114 29.1911C45.2649 28.8421 45.4202 28.4314 45.461 28.002C45.376 28.3909 45.2014 28.7546 44.9512 29.0642C44.701 29.3739 44.382 29.6209 44.0196 29.7857Z" fill="black"/>
<path opacity="0.25" d="M17.2056 10.9821L44.0197 26.217C44.3822 26.3818 44.7013 26.6289 44.9515 26.9387C45.2017 27.2485 45.3762 27.6124 45.4611 28.0015C45.4204 27.5719 45.2653 27.161 45.0117 26.8118C44.7582 26.4626 44.4156 26.1878 44.0197 26.0161L17.2056 10.7812C15.2839 9.68933 13.7119 10.5963 13.7119 12.7974V12.9982C13.7119 10.7973 15.2839 9.89035 17.2056 10.9821Z" fill="white"/>
</g>
<defs>
<linearGradient id="paint0_linear_2007_5259" x1="29.9743" y1="12.4761" x2="6.89857" y2="35.5518" gradientUnits="userSpaceOnUse">
<stop stop-color="#00A0FF"/>
<stop offset="0.00657" stop-color="#00A1FF"/>
<stop offset="0.2601" stop-color="#00BEFF"/>
<stop offset="0.5122" stop-color="#00D2FF"/>
<stop offset="0.7604" stop-color="#00DFFF"/>
<stop offset="1" stop-color="#00E3FF"/>
</linearGradient>
<linearGradient id="paint1_linear_2007_5259" x1="46.5222" y1="28.002" x2="13.2517" y2="28.002" gradientUnits="userSpaceOnUse">
<stop stop-color="#FFE000"/>
<stop offset="0.4087" stop-color="#FFBD00"/>
<stop offset="0.7754" stop-color="#FFA500"/>
<stop offset="1" stop-color="#FF9C00"/>
</linearGradient>
<linearGradient id="paint2_linear_2007_5259" x1="34.1369" y1="31.1572" x2="2.84444" y2="62.4497" gradientUnits="userSpaceOnUse">
<stop stop-color="#FF3A44"/>
<stop offset="1" stop-color="#C31162"/>
</linearGradient>
<linearGradient id="paint3_linear_2007_5259" x1="10.0338" y1="0.742435" x2="24.0072" y2="14.7158" gradientUnits="userSpaceOnUse">
<stop stop-color="#32A071"/>
<stop offset="0.0685" stop-color="#2DA771"/>
<stop offset="0.4762" stop-color="#15CF74"/>
<stop offset="0.8009" stop-color="#06E775"/>
<stop offset="1" stop-color="#00F076"/>
</linearGradient>
<clipPath id="clip0_2007_5259">
<rect width="185.624" height="55" fill="white" transform="translate(0 0.5)"/>
</clipPath>
</defs>
</svg>
