<svg width="187" height="56" viewBox="0 0 187 56" fill="none" xmlns="http://www.w3.org/2000/svg">
<g clip-path="url(#clip0_2007_5275)">
<path fill-rule="evenodd" clip-rule="evenodd" d="M15.4144 0.500002H171.467C172.025 0.500002 172.591 0.499824 173.149 0.502574C173.534 0.504762 173.928 0.510533 174.317 0.516229C174.405 0.517511 174.492 0.51879 174.579 0.520022C175.618 0.530263 176.655 0.611519 177.681 0.763067C178.711 0.918333 179.708 1.20891 180.641 1.62519C182.507 2.47454 184.025 3.8209 184.983 5.47492C185.451 6.29907 185.774 7.18151 185.943 8.09198C186.116 9.00195 186.212 9.92208 186.231 10.8447C186.237 11.2664 186.237 11.6893 186.237 12.111C186.249 12.6091 186.249 13.1086 186.249 13.6122V42.3891C186.249 42.8968 186.249 43.3935 186.237 43.8931C186.237 44.32 186.237 44.7336 186.231 45.1607C186.212 46.0833 186.116 47.0034 185.943 47.9133C185.775 48.8243 185.451 49.7072 184.983 50.5317C184.507 51.3523 183.888 52.1013 183.15 52.7514C182.417 53.407 181.57 53.9542 180.641 54.3721C179.708 54.7895 178.711 55.0818 177.681 55.2394C176.655 55.3898 175.618 55.471 174.579 55.4825C174.106 55.4919 173.621 55.4973 173.149 55.4973C172.591 55.5 172.025 55.5 171.467 55.5H15.4144C14.8456 55.5 14.2835 55.5 13.7162 55.4973C13.2413 55.4973 12.7702 55.4919 12.2907 55.4825C11.2492 55.4704 10.2101 55.3891 9.18225 55.2394C8.15588 55.0829 7.16189 54.7905 6.23357 54.3721C5.30413 53.9545 4.45638 53.4073 3.72269 52.7514C2.98222 52.1038 2.36499 51.3542 1.89501 50.5317C1.42307 49.7078 1.09611 48.8248 0.925503 47.9133C0.752795 47.0035 0.659858 46.0832 0.647524 45.1607C0.63769 44.8689 0.633864 44.5834 0.630009 44.2957C0.628221 44.1622 0.626427 44.0283 0.624023 43.8931V12.111C0.626455 11.9758 0.628263 11.8405 0.630072 11.7052C0.633907 11.4183 0.637744 11.1312 0.647524 10.8448C0.659854 9.92222 0.752791 9.00188 0.925503 8.09204C1.09659 7.18104 1.42352 6.29853 1.89501 5.47497C2.36521 4.64977 2.98234 3.89713 3.72269 3.24597C4.45917 2.59298 5.30637 2.04615 6.23357 1.62532C7.1619 1.20801 8.156 0.91736 9.18225 0.763191C10.2099 0.612307 11.2491 0.53108 12.2907 0.520215C12.3903 0.518819 12.4895 0.517369 12.5884 0.515922C12.966 0.5104 13.3399 0.504931 13.7162 0.502752C14.2835 0.500002 14.8456 0.500002 15.4144 0.500002ZM12.1851 54.2863C12.6548 54.2956 13.1168 54.301 13.5902 54.301L171.606 54.3038L173.29 54.301C173.753 54.301 174.23 54.2956 174.685 54.2863C175.658 54.2758 176.629 54.2008 177.589 54.062C178.491 53.9266 179.365 53.6717 180.181 53.3059C180.987 52.9435 181.721 52.4687 182.356 51.8996C182.992 51.3418 183.524 50.6986 183.934 49.9939C184.345 49.2709 184.628 48.4963 184.773 47.6972C184.932 46.8543 185.02 46.0024 185.039 45.1481C185.045 44.7264 185.045 44.3167 185.045 43.8695C185.057 43.3779 185.057 42.8904 185.057 42.3907V13.6078C185.057 13.1129 185.057 12.622 185.045 12.1063C185.045 11.6899 185.045 11.2716 185.04 10.8821C185.022 10.0123 184.931 9.14481 184.77 8.28663C184.624 7.49792 184.343 6.73336 183.938 6.01889C183.111 4.59009 181.798 3.42635 180.186 2.69079C179.367 2.32699 178.492 2.07306 177.589 1.93734C176.634 1.79865 175.669 1.7239 174.702 1.71373L173.283 1.69626H13.591L12.1889 1.71305C11.2124 1.72376 10.2383 1.79918 9.27455 1.93868C8.38068 2.07272 7.51464 2.3249 6.70546 2.68676C5.90048 3.05175 5.16518 3.52625 4.52637 4.09295C3.88684 4.65431 3.35415 5.30356 2.94895 6.01553C2.53755 6.73497 2.25277 7.50582 2.10446 8.3014C1.94508 9.15259 1.8591 10.0133 1.84725 10.876C1.83816 11.1554 1.82442 12.1063 1.82442 12.1063V43.8762C1.82442 43.8762 1.83732 44.8419 1.84717 45.132C1.85955 45.9961 1.94604 46.8581 2.10589 47.7106C2.25392 48.504 2.53848 49.2727 2.94966 49.9898C3.35636 50.7022 3.89202 51.351 4.53543 51.9103C5.16965 52.4764 5.90261 52.9484 6.70622 53.3085C7.51727 53.6715 8.38494 53.9255 9.28062 54.062C10.2412 54.2001 11.212 54.2751 12.1851 54.2863Z" fill="#A6A6A6"/>
<path d="M13.59 54.301C13.1166 54.301 12.6546 54.2957 12.1849 54.2863C11.2118 54.2751 10.241 54.2001 9.28042 54.062C8.38474 53.9255 7.51707 53.6715 6.70602 53.3085C5.90241 52.9485 5.16945 52.4764 4.53522 51.9104C3.89182 51.351 3.35615 50.7022 2.94946 49.9898C2.53828 49.2727 2.25372 48.5041 2.10569 47.7107C1.94583 46.8581 1.85934 45.9961 1.84697 45.132C1.83712 44.8419 1.82422 43.8762 1.82422 43.8762V12.1063C1.82422 12.1063 1.83796 11.1554 1.84705 10.8761C1.8589 10.0133 1.94488 9.15262 2.10426 8.30142C2.25256 7.50585 2.53734 6.735 2.94874 6.01556C3.35394 5.30359 3.88664 4.65434 4.52617 4.09298C5.16498 3.52628 5.90028 3.05178 6.70526 2.68678C7.51444 2.32492 8.38047 2.07275 9.27435 1.93871C10.2381 1.79921 11.2122 1.72379 12.1887 1.71308L13.5908 1.69629H173.283L174.701 1.71376C175.669 1.72393 176.634 1.79868 177.589 1.93736C178.492 2.07308 179.367 2.32702 180.186 2.69081C181.798 3.42638 183.11 4.59012 183.938 6.01891C184.343 6.73339 184.623 7.49795 184.77 8.28665C184.931 9.14483 185.021 10.0123 185.04 10.8821C185.044 11.2716 185.044 11.69 185.044 12.1063C185.057 12.622 185.057 13.1129 185.057 13.6078V42.3908C185.057 42.8904 185.057 43.378 185.044 43.8695C185.044 44.3167 185.044 44.7264 185.038 45.1481C185.02 46.0024 184.931 46.8544 184.773 47.6972C184.628 48.4963 184.345 49.2709 183.934 49.9939C183.524 50.6986 182.992 51.3418 182.356 51.8996C181.721 52.4687 180.987 52.9436 180.181 53.3059C179.365 53.6717 178.491 53.9266 177.589 54.062C176.629 54.2009 175.658 54.2758 174.685 54.2863C174.229 54.2957 173.753 54.301 173.29 54.301L171.606 54.3038L13.59 54.301Z" fill="#1F2024"/>
<path d="M45.7203 28.4134C45.7351 27.2658 46.04 26.1405 46.6065 25.1423C47.173 24.1441 47.9828 23.3055 48.9606 22.7044C48.3395 21.8173 47.52 21.0872 46.5674 20.5722C45.6148 20.0572 44.5552 19.7714 43.4728 19.7375C41.1638 19.4952 38.9254 21.1192 37.7488 21.1192C36.5494 21.1192 34.7378 19.7616 32.7871 19.8017C31.5253 19.8425 30.2956 20.2094 29.2177 20.8668C28.1399 21.5241 27.2507 22.4494 26.6368 23.5526C23.9776 28.1566 25.9611 34.9231 28.5085 38.6447C29.783 40.467 31.2725 42.5027 33.2215 42.4305C35.1287 42.3514 35.841 41.2143 38.1431 41.2143C40.4239 41.2143 41.0922 42.4305 43.0808 42.3846C45.1273 42.3513 46.4167 40.5541 47.6465 38.7145C48.5622 37.416 49.2668 35.9809 49.7343 34.4623C48.5453 33.9594 47.5307 33.1177 46.8169 32.042C46.1031 30.9664 45.7217 29.7044 45.7203 28.4134V28.4134Z" fill="white"/>
<path d="M41.964 17.2898C43.0799 15.9503 43.6296 14.2286 43.4965 12.4902C41.7917 12.6693 40.217 13.4841 39.0861 14.7722C38.5331 15.4015 38.1096 16.1336 37.8398 16.9266C37.5699 17.7197 37.4591 18.5582 37.5135 19.3941C38.3661 19.4029 39.2097 19.2181 39.9806 18.8536C40.7515 18.4891 41.4297 17.9544 41.964 17.2898Z" fill="white"/>
<path d="M69.8291 37.8171H63.3207L61.7577 42.4322H59.001L65.1657 25.3575H68.0298L74.1945 42.4322H71.3907L69.8291 37.8171ZM63.9947 35.6875H69.1537L66.6105 28.1975H66.5394L63.9947 35.6875Z" fill="white"/>
<path d="M87.5081 36.2085C87.5081 40.077 85.4375 42.5625 82.3129 42.5625C81.5213 42.6039 80.7342 42.4215 80.0414 42.0363C79.3487 41.6511 78.7785 41.0787 78.396 40.3845H78.3369V46.5505H75.7816V29.9833H78.255V32.0539H78.302C78.7021 31.363 79.2819 30.7935 79.9799 30.406C80.6779 30.0184 81.4679 29.8274 82.2659 29.8531C85.4254 29.8531 87.5081 32.3507 87.5081 36.2085ZM84.8816 36.2085C84.8816 33.6881 83.5791 32.0311 81.5918 32.0311C79.6394 32.0311 78.3262 33.723 78.3262 36.2085C78.3262 38.7168 79.6394 40.3966 81.5918 40.3966C83.5791 40.3966 84.8816 38.7517 84.8816 36.2085Z" fill="white"/>
<path d="M101.21 36.2085C101.21 40.077 99.1392 42.5625 96.0145 42.5625C95.223 42.6039 94.4358 42.4215 93.7431 42.0363C93.0504 41.6511 92.4801 41.0787 92.0977 40.3845H92.0385V46.5505H89.4832V29.9833H91.9566V32.0539H92.0036C92.4037 31.363 92.9836 30.7935 93.6815 30.406C94.3795 30.0184 95.1695 29.8274 95.9675 29.8531C99.1271 29.8531 101.21 32.3507 101.21 36.2085ZM98.5832 36.2085C98.5832 33.6881 97.2807 32.0311 95.2934 32.0311C93.3411 32.0311 92.0278 33.723 92.0278 36.2085C92.0278 38.7168 93.3411 40.3966 95.2934 40.3966C97.2808 40.3966 98.5832 38.7517 98.5832 36.2085Z" fill="white"/>
<path d="M110.265 37.6748C110.455 39.368 112.1 40.4798 114.347 40.4798C116.501 40.4798 118.051 39.3679 118.051 37.8412C118.051 36.5159 117.116 35.7223 114.903 35.1785L112.69 34.6454C109.555 33.8881 108.099 32.4218 108.099 30.0424C108.099 27.0963 110.667 25.0728 114.312 25.0728C117.921 25.0728 120.394 27.0963 120.477 30.0424H117.898C117.743 28.3384 116.335 27.3098 114.276 27.3098C112.218 27.3098 110.809 28.3505 110.809 29.8651C110.809 31.0723 111.709 31.7826 113.91 32.3264L115.791 32.7883C119.294 33.6168 120.75 35.024 120.75 37.5216C120.75 40.716 118.205 42.7168 114.158 42.7168C110.371 42.7168 107.815 40.763 107.65 37.6746L110.265 37.6748Z" fill="white"/>
<path d="M126.265 27.0373V29.9833H128.632V32.0069H126.265V38.8698C126.265 39.936 126.739 40.4328 127.779 40.4328C128.06 40.4279 128.341 40.4082 128.62 40.3737V42.3852C128.152 42.4726 127.676 42.5122 127.2 42.5033C124.68 42.5033 123.697 41.5567 123.697 39.1424V32.0069H121.887V29.9833H123.697V27.0373H126.265Z" fill="white"/>
<path d="M130.003 36.2085C130.003 32.2916 132.31 29.8303 135.907 29.8303C139.516 29.8303 141.813 32.2915 141.813 36.2085C141.813 40.1361 139.528 42.5866 135.907 42.5866C132.287 42.5866 130.003 40.1361 130.003 36.2085ZM139.209 36.2085C139.209 33.5216 137.978 31.9358 135.907 31.9358C133.836 31.9358 132.606 33.5337 132.606 36.2085C132.606 38.9061 133.836 40.4798 135.907 40.4798C137.978 40.4798 139.209 38.9061 139.209 36.2085Z" fill="white"/>
<path d="M143.919 29.9833H146.356V32.1022H146.416C146.58 31.4405 146.968 30.8556 147.513 30.446C148.059 30.0364 148.728 29.8271 149.41 29.8531C149.704 29.852 149.998 29.884 150.285 29.9484V32.3386C149.914 32.225 149.526 32.1728 149.137 32.1841C148.766 32.1691 148.396 32.2345 148.052 32.376C147.709 32.5175 147.4 32.7316 147.147 33.0037C146.894 33.2758 146.703 33.5994 146.587 33.9523C146.471 34.3053 146.433 34.6791 146.475 35.0483V42.4322H143.919L143.919 29.9833Z" fill="white"/>
<path d="M162.067 38.7758C161.723 41.0357 159.522 42.5866 156.707 42.5866C153.085 42.5866 150.837 40.1602 150.837 36.2675C150.837 32.3627 153.097 29.8303 156.599 29.8303C160.043 29.8303 162.209 32.1962 162.209 35.9708V36.8463H153.417V37.0007C153.376 37.4588 153.434 37.9204 153.585 38.3546C153.737 38.7889 153.979 39.186 154.295 39.5195C154.612 39.853 154.996 40.1153 155.422 40.289C155.848 40.4626 156.306 40.5437 156.766 40.5268C157.369 40.5834 157.975 40.4435 158.493 40.128C159.011 39.8126 159.414 39.3383 159.641 38.7758L162.067 38.7758ZM153.429 35.0604H159.653C159.676 34.6484 159.613 34.2362 159.469 33.8495C159.325 33.4629 159.103 33.1101 158.816 32.8134C158.529 32.5168 158.185 32.2826 157.803 32.1255C157.421 31.9685 157.012 31.892 156.599 31.9008C156.183 31.8983 155.771 31.9783 155.385 32.1361C155 32.2938 154.65 32.5263 154.356 32.82C154.061 33.1138 153.827 33.463 153.668 33.8475C153.509 34.232 153.428 34.6442 153.429 35.0604Z" fill="white"/>
<path d="M63.6744 12.5053C64.2102 12.4669 64.7477 12.5478 65.2484 12.7423C65.749 12.9368 66.2003 13.2399 66.5696 13.6299C66.9389 14.0199 67.217 14.487 67.384 14.9975C67.5509 15.508 67.6025 16.0491 67.5349 16.582C67.5349 19.2031 66.1183 20.7097 63.6744 20.7097H60.7109V12.5053H63.6744ZM61.9852 19.5494H63.5321C63.9149 19.5723 64.298 19.5096 64.6535 19.3657C65.009 19.2219 65.3279 19.0006 65.5871 18.7179C65.8463 18.4353 66.0392 18.0984 66.1517 17.7318C66.2643 17.3652 66.2937 16.9781 66.2378 16.5987C66.2896 16.2208 66.2572 15.8361 66.143 15.4722C66.0287 15.1083 65.8353 14.7742 65.5767 14.4938C65.3181 14.2134 65.0007 13.9936 64.6472 13.8503C64.2938 13.707 63.9129 13.6436 63.5321 13.6647H61.9852V19.5494Z" fill="white"/>
<path d="M68.9744 17.6112C68.9354 17.2043 68.982 16.7937 69.111 16.4059C69.24 16.0181 69.4487 15.6615 69.7236 15.359C69.9985 15.0565 70.3337 14.8148 70.7074 14.6495C71.0812 14.4841 71.4855 14.3986 71.8942 14.3986C72.303 14.3986 72.7072 14.4841 73.081 14.6495C73.4548 14.8148 73.7899 15.0565 74.0648 15.359C74.3397 15.6615 74.5484 16.0181 74.6774 16.4059C74.8065 16.7937 74.853 17.2043 74.8141 17.6112C74.8537 18.0185 74.8077 18.4296 74.6791 18.818C74.5504 19.2065 74.3418 19.5638 74.0668 19.8668C73.7918 20.1699 73.4565 20.4121 73.0823 20.5778C72.7082 20.7436 72.3034 20.8292 71.8942 20.8292C71.485 20.8292 71.0803 20.7436 70.7061 20.5778C70.3319 20.4121 69.9966 20.1699 69.7216 19.8668C69.4466 19.5638 69.2381 19.2065 69.1094 18.818C68.9807 18.4296 68.9347 18.0185 68.9744 17.6112ZM73.5572 17.6112C73.5572 16.2691 72.9543 15.4842 71.8962 15.4842C70.8341 15.4842 70.2366 16.2691 70.2366 17.6112C70.2366 18.964 70.8341 19.7428 71.8962 19.7428C72.9543 19.7428 73.5572 18.9586 73.5572 17.6112Z" fill="white"/>
<path d="M82.5767 20.7096H81.3091L80.0294 16.1495H79.9327L78.6585 20.7096H77.403L75.6963 14.5181H76.9357L78.0448 19.2426H78.1361L79.4091 14.5181H80.5813L81.8543 19.2426H81.9509L83.0547 14.5181H84.2766L82.5767 20.7096Z" fill="white"/>
<path d="M85.712 14.5181H86.8883V15.5017H86.9796C87.1345 15.1484 87.3958 14.8523 87.727 14.6545C88.0582 14.4568 88.4428 14.3673 88.8273 14.3986C89.1285 14.3759 89.431 14.4213 89.7123 14.5315C89.9937 14.6416 90.2466 14.8136 90.4524 15.0348C90.6582 15.2559 90.8117 15.5206 90.9013 15.8091C90.991 16.0976 91.0145 16.4026 90.9703 16.7014V20.7095H89.7484V17.0083C89.7484 16.0133 89.316 15.5184 88.4123 15.5184C88.2078 15.5089 88.0036 15.5437 87.8138 15.6205C87.624 15.6973 87.453 15.8142 87.3126 15.9632C87.1721 16.1122 87.0656 16.2899 87.0002 16.4839C86.9349 16.678 86.9123 16.8839 86.9339 17.0875V20.7096H85.712L85.712 14.5181Z" fill="white"/>
<path d="M92.9173 12.1011H94.1393V20.7096H92.9173V12.1011Z" fill="white"/>
<path d="M95.8379 17.6112C95.799 17.2043 95.8456 16.7937 95.9746 16.4058C96.1037 16.018 96.3124 15.6614 96.5873 15.3589C96.8623 15.0564 97.1974 14.8147 97.5712 14.6493C97.945 14.484 98.3493 14.3985 98.7581 14.3985C99.1668 14.3985 99.5711 14.484 99.9449 14.6493C100.319 14.8147 100.654 15.0564 100.929 15.3589C101.204 15.6614 101.412 16.018 101.542 16.4058C101.671 16.7937 101.717 17.2043 101.678 17.6112C101.718 18.0185 101.672 18.4296 101.543 18.8181C101.414 19.2065 101.206 19.5638 100.931 19.8668C100.656 20.1699 100.32 20.4121 99.9462 20.5778C99.572 20.7435 99.1673 20.8291 98.7581 20.8291C98.3488 20.8291 97.9441 20.7435 97.5699 20.5778C97.1957 20.4121 96.8604 20.1699 96.5853 19.8668C96.3103 19.5638 96.1018 19.2065 95.973 18.8181C95.8443 18.4296 95.7983 18.0185 95.8379 17.6112ZM100.421 17.6112C100.421 16.2691 99.8178 15.4842 98.7597 15.4842C97.6976 15.4842 97.1001 16.2691 97.1001 17.6112C97.1001 18.964 97.6977 19.7428 98.7597 19.7428C99.8179 19.7428 100.421 18.9586 100.421 17.6112Z" fill="white"/>
<path d="M102.965 18.9586C102.965 17.8441 103.794 17.2016 105.268 17.1103L106.945 17.0136V16.4792C106.945 15.8253 106.512 15.456 105.677 15.456C104.995 15.456 104.522 15.7064 104.387 16.1442H103.204C103.329 15.0807 104.329 14.3986 105.733 14.3986C107.286 14.3986 108.161 15.1713 108.161 16.4792V20.7096H106.985V19.8395H106.888C106.692 20.1516 106.416 20.4061 106.09 20.5769C105.763 20.7476 105.397 20.8287 105.028 20.8116C104.769 20.8387 104.506 20.8109 104.257 20.7302C104.009 20.6495 103.78 20.5176 103.585 20.343C103.391 20.1685 103.235 19.9551 103.128 19.7166C103.021 19.4782 102.966 19.22 102.965 18.9586ZM106.945 18.4296V17.9119L105.433 18.0086C104.58 18.0657 104.193 18.3557 104.193 18.9016C104.193 19.4588 104.677 19.7831 105.341 19.7831C105.536 19.8028 105.733 19.7831 105.92 19.7253C106.107 19.6674 106.28 19.5725 106.43 19.4462C106.58 19.3199 106.702 19.1648 106.791 18.9902C106.879 18.8155 106.931 18.6249 106.945 18.4296Z" fill="white"/>
<path d="M109.767 17.6112C109.767 15.6547 110.773 14.4154 112.337 14.4154C112.724 14.3975 113.108 14.4902 113.444 14.6826C113.781 14.8749 114.055 15.159 114.236 15.5016H114.327V12.1011H115.549V20.7096H114.378V19.7314H114.282C114.087 20.0717 113.803 20.3522 113.46 20.5426C113.117 20.733 112.729 20.8261 112.337 20.8116C110.762 20.8117 109.767 19.5723 109.767 17.6112ZM111.029 17.6112C111.029 18.9244 111.648 19.7146 112.684 19.7146C113.714 19.7146 114.35 18.913 114.35 17.6165C114.35 16.3261 113.707 15.5131 112.684 15.5131C111.655 15.5131 111.029 16.3087 111.029 17.6112Z" fill="white"/>
<path d="M120.605 17.6112C120.566 17.2043 120.612 16.7937 120.741 16.4059C120.87 16.0181 121.079 15.6615 121.354 15.359C121.629 15.0565 121.964 14.8148 122.338 14.6495C122.712 14.4841 123.116 14.3986 123.525 14.3986C123.933 14.3986 124.338 14.4841 124.711 14.6495C125.085 14.8148 125.42 15.0565 125.695 15.359C125.97 15.6615 126.179 16.0181 126.308 16.4059C126.437 16.7937 126.483 17.2043 126.444 17.6112C126.484 18.0185 126.438 18.4296 126.309 18.818C126.181 19.2065 125.972 19.5638 125.697 19.8668C125.422 20.1699 125.087 20.4121 124.713 20.5778C124.338 20.7436 123.934 20.8292 123.525 20.8292C123.115 20.8292 122.711 20.7436 122.336 20.5778C121.962 20.4121 121.627 20.1699 121.352 19.8668C121.077 19.5638 120.868 19.2065 120.74 18.818C120.611 18.4296 120.565 18.0185 120.605 17.6112ZM125.188 17.6112C125.188 16.2691 124.585 15.4842 123.527 15.4842C122.464 15.4842 121.867 16.2691 121.867 17.6112C121.867 18.964 122.464 19.7428 123.527 19.7428C124.585 19.7428 125.188 18.9586 125.188 17.6112Z" fill="white"/>
<path d="M128.084 14.5181H129.26V15.5017H129.351C129.506 15.1484 129.768 14.8523 130.099 14.6545C130.43 14.4568 130.815 14.3673 131.199 14.3986C131.5 14.3759 131.803 14.4213 132.084 14.5315C132.366 14.6416 132.618 14.8136 132.824 15.0348C133.03 15.2559 133.184 15.5206 133.273 15.8091C133.363 16.0976 133.386 16.4026 133.342 16.7014V20.7095H132.12V17.0083C132.12 16.0133 131.688 15.5184 130.784 15.5184C130.58 15.5089 130.376 15.5437 130.186 15.6205C129.996 15.6973 129.825 15.8142 129.684 15.9632C129.544 16.1122 129.437 16.2899 129.372 16.4839C129.307 16.678 129.284 16.8839 129.306 17.0875V20.7096H128.084V14.5181Z" fill="white"/>
<path d="M140.247 12.9766V14.5463H141.588V15.5755H140.247V18.7592C140.247 19.4078 140.514 19.6918 141.122 19.6918C141.278 19.6913 141.434 19.6819 141.588 19.6636V20.6814C141.369 20.7207 141.146 20.7415 140.924 20.7438C139.565 20.7438 139.023 20.2658 139.023 19.0721V15.5755H138.041V14.5462H139.023V12.9766H140.247Z" fill="white"/>
<path d="M143.257 12.1011H144.468V15.5131H144.565C144.728 15.1565 144.996 14.8587 145.334 14.6602C145.672 14.4617 146.062 14.3722 146.453 14.4039C146.753 14.3876 147.052 14.4377 147.33 14.5505C147.609 14.6633 147.858 14.8361 148.062 15.0565C148.266 15.277 148.418 15.5397 148.509 15.8259C148.599 16.1121 148.625 16.4147 148.585 16.7122V20.7096H147.362V17.0136C147.362 16.0247 146.902 15.5238 146.038 15.5238C145.828 15.5066 145.617 15.5354 145.419 15.6084C145.222 15.6813 145.042 15.7966 144.894 15.9461C144.745 16.0956 144.631 16.2758 144.56 16.474C144.488 16.6722 144.461 16.8836 144.479 17.0935V20.7096H143.257L143.257 12.1011Z" fill="white"/>
<path d="M155.71 19.0379C155.544 19.6037 155.184 20.0932 154.694 20.4207C154.204 20.7481 153.614 20.8927 153.027 20.8291C152.619 20.8399 152.214 20.7617 151.839 20.6001C151.465 20.4385 151.13 20.1973 150.857 19.8933C150.585 19.5892 150.383 19.2296 150.263 18.8393C150.144 18.4491 150.111 18.0375 150.167 17.6333C150.113 17.2278 150.146 16.8154 150.265 16.424C150.384 16.0326 150.586 15.6713 150.856 15.3646C151.127 15.0578 151.461 14.8129 151.834 14.6462C152.208 14.4795 152.613 14.3951 153.022 14.3986C154.745 14.3986 155.784 15.5756 155.784 17.5198V17.9462H151.412V18.0147C151.393 18.2419 151.421 18.4706 151.496 18.6861C151.57 18.9017 151.689 19.0993 151.844 19.2663C151.999 19.4333 152.188 19.566 152.397 19.6559C152.607 19.7458 152.833 19.791 153.061 19.7884C153.353 19.8235 153.649 19.7709 153.912 19.6372C154.174 19.5036 154.39 19.2949 154.534 19.0378L155.71 19.0379ZM151.412 17.0425H154.539C154.555 16.8347 154.526 16.626 154.456 16.4297C154.386 16.2335 154.276 16.0541 154.132 15.903C153.989 15.752 153.815 15.6326 153.623 15.5526C153.43 15.4726 153.223 15.4338 153.015 15.4386C152.804 15.4359 152.594 15.4756 152.398 15.5553C152.203 15.6349 152.025 15.753 151.875 15.9025C151.726 16.0519 151.608 16.2298 151.528 16.4256C151.449 16.6214 151.409 16.8312 151.412 17.0425Z" fill="white"/>
</g>
<defs>
<clipPath id="clip0_2007_5275">
<rect width="185.625" height="55" fill="white" transform="translate(0.624023 0.5)"/>
</clipPath>
</defs>
</svg>
