<svg width="488" height="494" viewBox="0 0 488 494" fill="none" xmlns="http://www.w3.org/2000/svg">
<mask id="mask0_858_14168" style="mask-type:luminance" maskUnits="userSpaceOnUse" x="0" y="0" width="488" height="494">
<path d="M488 0H0V494H488V0Z" fill="white"/>
</mask>
<g mask="url(#mask0_858_14168)">
<path d="M262.178 210.926C262.178 210.926 283.919 226.213 282.348 282.275C278.846 407.27 297.39 503.192 297.39 503.192L256.872 508.256C256.872 508.256 251.979 442.003 241.04 363.865C230.103 285.726 233.202 219.679 262.178 210.926Z" fill="#DFEEEF"/>
<path d="M83.2258 461.937L73.0964 569.141L173.263 576.737L187.53 530.311L193.678 576.737L285.852 572.517L266.236 439.989L83.2258 461.937Z" fill="#07003D"/>
<path d="M161.013 473.233C161.013 473.233 209.978 473.891 229.604 469.956C249.23 466.021 237.702 210.29 237.702 210.29L200.502 174.233L137.041 169.238C137.041 169.238 142.77 237.295 143.07 238.561C143.369 239.827 161.013 473.233 161.013 473.233Z" fill="#2866BF"/>
<path d="M203.533 174.35C203.533 174.35 252.594 205.565 259.754 208.82C266.914 212.076 276.199 244.315 267.759 278.844C259.317 313.371 284.342 481.351 284.342 481.351C284.342 481.351 257.198 492.747 233.567 481.351C209.936 469.956 210.08 380.369 215.073 336.319C220.065 292.269 207.671 185.84 203.533 174.35Z" fill="white"/>
<path d="M199.322 162.169C199.322 162.169 209.166 173.14 219.318 184.326C229.47 195.511 236.434 220.835 236.434 220.835L217.879 225.63L237.702 242.895C237.702 242.895 231.019 271.724 214.259 344.41C215.652 286.038 204.036 206.466 199.322 162.169Z" fill="#DFEEEF"/>
<path d="M199.322 162.169C199.322 162.169 209.166 173.14 219.318 184.326C229.47 195.511 235.168 214.043 235.168 214.043L216.098 219.569L236.434 234.349C236.434 234.349 231.017 271.723 214.259 344.408C215.652 286.038 204.036 206.466 199.322 162.169Z" fill="#F0F6F7"/>
<path d="M213.028 61.2958L221.729 60.6628C221.729 60.6628 223.442 83.4973 218.695 95.1013C207.86 88.7509 202.103 60.7693 202.419 60.6628C202.736 60.5578 204.903 58.3423 213.028 61.2958Z" fill="#07003D"/>
<path d="M129.438 91.229C129.438 91.229 147.156 124.779 149.379 137.218C151.087 131.541 148.578 111.777 148.578 111.777L129.438 91.229Z" fill="#07003D"/>
<path d="M198.681 150.153C198.681 150.153 195.268 175.937 200.501 191.633C188.899 205.511 171.382 198.685 161.372 187.31C151.363 175.935 145.219 169.793 145.219 169.793C145.219 169.793 152.726 138.626 146.357 114.511C158.187 109.052 198.681 150.153 198.681 150.153Z" fill="#FFB0A0"/>
<path d="M173.201 161.376C159.024 153.169 154.024 138.231 148.168 124.089C147.763 120.835 147.177 117.615 146.357 114.511C158.187 109.052 198.681 150.153 198.681 150.153C198.681 150.153 197.917 155.935 197.668 163.687C190.026 166.426 181.019 165.546 173.201 161.376Z" fill="#F7A192"/>
<path d="M212.702 55.0648C212.702 55.0648 212.782 69.0476 220 90.7475C227.219 112.447 226.078 141.854 211.725 150.725C197.372 159.595 156.155 157.752 147.509 114.088C138.862 70.4245 143.1 45.1528 158.066 38.7499C173.03 32.347 209.314 32.961 212.702 55.0648Z" fill="#FFB0A0"/>
<path d="M155.646 134.776C154.347 132.314 153.206 129.607 152.274 126.609C149.851 117.927 150.639 109.042 150.639 109.042C150.639 109.042 152.34 108.142 154.332 107.671C160.03 124.448 172.059 129.195 176.49 125.249C180.921 121.302 187.569 116.851 206.687 117.503C216.007 117.82 221.653 119.276 224.22 122.104C223.806 129.544 222.283 136.454 219.482 141.879C217.242 145.758 214.575 148.963 211.725 150.725C200.119 157.896 170.959 158.054 155.646 134.776Z" fill="#C99893"/>
<path d="M203.869 137.645C203.869 137.645 196.035 140.652 191.524 133.766C193.107 141.76 200.15 142.472 203.869 137.645Z" fill="#B27C79"/>
<path d="M185.924 95.2091C185.924 95.2091 185.275 101.374 179.349 102.262C173.424 103.151 170.883 97.3546 170.883 97.3546C170.883 97.3546 174.064 101.522 179.051 100.576C184.038 99.6328 185.924 95.2091 185.924 95.2091Z" fill="#F7A192"/>
<path d="M205.186 94.2683C205.186 94.2683 206.284 98.4951 210.475 99.5759C214.667 100.658 217.25 95.4935 217.25 95.4935C217.25 95.4935 214.124 99.1194 210.81 98.4922C207.496 97.8636 205.186 94.2683 205.186 94.2683Z" fill="#F7A192"/>
<path d="M158.064 38.7498C173.03 32.3469 209.314 32.9609 212.702 55.0647C212.702 55.0647 212.741 61.6076 215.073 72.6851C199.575 76.8302 183.087 74.9997 168.198 70.8794C168.169 70.5002 168.145 70.1254 168.091 69.733C168.145 70.1254 168.17 70.5017 168.198 70.8794C167.842 70.7803 167.482 70.6884 167.129 70.5863C167.483 70.6869 167.842 70.7803 168.198 70.8794C168.506 74.9297 167.353 78.2041 164.664 81.3793C156.444 90.2894 150.57 100.142 153.734 112.083C151.17 103.451 149.265 92.9628 143.565 86.8531C141.392 59.7932 146.546 43.6781 158.064 38.7498Z" fill="#F7A192"/>
<path d="M147.442 98.5884C147.442 98.5884 138.598 85.084 132.116 91.8719C125.636 98.6598 136.265 113.782 142.377 116.064C148.488 118.347 150.127 113.487 149.87 110.128C149.614 106.769 149.261 102.494 147.442 98.5884Z" fill="#FFB0A0"/>
<path d="M138.888 109.886C138.888 109.886 134.009 103.791 132.901 99.4329C131.792 95.0748 137.73 93.6046 139.763 95.1696C141.798 96.7346 143.856 101.718 144.633 103.967C145.41 106.216 147.406 111.647 146.446 112.774C145.486 113.901 140.402 111.902 140.22 106.669C140.169 105.197 142.956 104.097 142.956 104.097C140.958 101.927 138.138 102.064 138.221 104.5C137.314 101.863 140.068 98.988 142.352 101.479C139.362 96.8192 137.708 95.9047 135.886 96.8222C134.065 97.7352 133.805 101.79 138.888 109.886Z" fill="#F99585"/>
<path d="M185.413 81.4013C185.413 81.4013 179.958 78.439 175.787 81.4625C171.615 84.486 170.794 85.8673 170.405 86.6388C170.017 87.4118 171.607 87.9661 175.612 86.1458C179.617 84.3271 182.359 85.5012 184.691 84.9688C187.023 84.435 186.634 81.9307 185.413 81.4013Z" fill="#0E004D"/>
<path d="M207.079 82.3785C207.079 82.3785 212.404 79.212 216.701 82.0561C219.647 84.0062 220.14 85.8468 219.789 86.9363C219.523 87.7589 218.181 87.1565 216.355 86.4944C212.22 84.9936 210.297 86.3544 207.944 85.9139C205.591 85.4734 205.882 82.956 207.079 82.3785Z" fill="#0E004D"/>
<path d="M204.597 86.2858C204.597 86.2858 202.638 90.4761 203.258 93.4748C203.878 96.475 212.84 110.453 215.721 113.815C218.6 117.177 204.323 119.032 198.147 115.889C193.64 113.414 200.345 109.597 200.345 109.597" fill="#FFB0A0"/>
<path d="M204.597 86.2859C204 87.39 203.522 88.5611 203.185 89.7863C202.86 91.01 202.628 92.3022 202.848 93.6514C203.183 94.9903 203.739 96.1002 204.283 97.2466C204.829 98.3872 205.438 99.4869 206.039 100.592C208.498 104.984 211.144 109.221 214.156 113.309C214.342 113.564 214.551 113.815 214.758 114.068C214.853 114.186 214.986 114.339 215.048 114.426C215.085 114.494 215.171 114.571 215.165 114.607C215.212 114.715 215.207 114.654 215.172 114.74C215.181 114.772 215.092 114.838 215.06 114.898C214.974 114.959 214.923 115.032 214.815 115.096C214.014 115.646 212.796 115.968 211.65 116.213C209.3 116.696 206.833 116.805 204.404 116.693C203.189 116.627 201.977 116.482 200.8 116.223C199.649 115.949 198.405 115.625 197.578 114.941C197.152 114.606 196.915 114.16 196.945 113.642C196.991 113.121 197.269 112.577 197.629 112.1C198.366 111.143 199.329 110.322 200.342 109.596C199.224 110.157 198.147 110.844 197.257 111.791C196.82 112.264 196.414 112.825 196.263 113.548C196.11 114.282 196.448 115.106 196.963 115.589C197.463 116.105 198.081 116.428 198.671 116.7C199.266 116.972 199.88 117.19 200.5 117.379C201.741 117.755 203.013 117.96 204.286 118.109C206.837 118.399 209.407 118.324 211.974 117.906C213.259 117.651 214.535 117.386 215.835 116.553C216.154 116.328 216.498 116.053 216.758 115.568C216.896 115.342 216.965 115.035 216.993 114.737C216.982 114.438 216.937 114.135 216.822 113.907C216.726 113.639 216.584 113.489 216.452 113.293L216.157 112.92C215.97 112.688 215.783 112.456 215.601 112.207C214.111 110.261 212.716 108.19 211.331 106.128C209.932 104.071 208.593 101.971 207.258 99.8749C206.598 98.8233 205.956 97.7585 205.332 96.6909C204.712 95.6349 204.083 94.5177 203.713 93.4574C203.398 92.3518 203.462 91.099 203.653 89.8898C203.865 88.6764 204.18 87.4658 204.597 86.2859Z" fill="#F99585"/>
<path d="M205.437 93.027C205.437 93.027 207.047 89.5047 211.041 89.6652C215.036 89.8271 216.996 93.9809 216.996 93.9809C215.655 93.7957 214.581 94.3747 210.605 94.5541C206.632 94.732 205.437 93.027 205.437 93.027Z" fill="white"/>
<mask id="mask1_858_14168" style="mask-type:luminance" maskUnits="userSpaceOnUse" x="205" y="89" width="12" height="6">
<path d="M205.437 93.027C205.437 93.027 207.047 89.5047 211.041 89.6652C215.036 89.8271 216.996 93.9809 216.996 93.9809C215.655 93.7957 214.581 94.3747 210.605 94.5541C206.632 94.732 205.437 93.027 205.437 93.027Z" fill="white"/>
</mask>
<g mask="url(#mask1_858_14168)">
<path d="M206.774 91.4635C206.166 93.0153 206.931 94.7656 208.482 95.3738C210.034 95.982 211.784 95.2177 212.393 93.6659C213.001 92.114 212.237 90.3638 210.685 89.7556C209.133 89.1474 207.383 89.9116 206.774 91.4635Z" fill="#0E004D"/>
<path d="M208.234 92.0353C207.943 92.7806 208.31 93.6207 209.055 93.9139C209.801 94.2056 210.641 93.838 210.934 93.0927C211.226 92.3474 210.858 91.5073 210.113 91.2142C209.366 90.9225 208.526 91.29 208.234 92.0353Z" fill="#05002D"/>
<path d="M208.029 91.274C207.9 91.6007 208.062 91.9697 208.389 92.0966C208.716 92.225 209.085 92.0631 209.211 91.7378C209.34 91.4111 209.178 91.0421 208.853 90.9152C208.526 90.7854 208.157 90.9473 208.029 91.274Z" fill="white"/>
</g>
<path d="M217.487 94.3237C216.921 93.1248 216.148 92.0032 215.149 91.0814C214.171 90.1611 212.912 89.3764 211.455 89.2451C210.043 89.1299 208.617 89.48 207.45 90.253C206.286 91.0216 205.443 92.1914 205.043 93.4544C205.764 92.3445 206.726 91.449 207.816 90.8612C208.908 90.2967 210.17 90.0371 211.373 90.1494C211.964 90.1844 212.547 90.3697 213.099 90.638C213.663 90.8831 214.185 91.2404 214.694 91.6196C215.702 92.3941 216.628 93.3173 217.487 94.3237Z" fill="#07003D"/>
<path d="M205.212 92.61C205.697 91.3994 206.487 90.3172 207.51 89.5689C208.529 88.8134 209.791 88.4371 211.058 88.4357C212.326 88.3759 213.584 88.7478 214.69 89.375C215.787 90.0211 216.751 90.9385 217.379 92.0878C216.92 90.851 215.984 89.8154 214.874 89.0774C213.749 88.3526 212.399 87.9529 211.048 87.9821C209.712 88.0185 208.337 88.4255 207.295 89.2947C206.255 90.1465 205.52 91.3352 205.212 92.61Z" fill="#AD625A"/>
<path d="M185.749 93.8687C185.749 93.8687 183.617 90.3609 178.619 90.6833C173.62 91.0056 171.301 95.2936 171.301 95.2936C172.976 95.053 174.21 95.5985 179.195 95.6218C184.18 95.6452 185.749 93.8687 185.749 93.8687Z" fill="white"/>
<mask id="mask2_858_14168" style="mask-type:luminance" maskUnits="userSpaceOnUse" x="171" y="90" width="15" height="6">
<path d="M185.749 93.8687C185.749 93.8687 183.617 90.3609 178.619 90.6833C173.62 91.0056 171.301 95.2936 171.301 95.2936C172.976 95.053 174.019 95.5985 179.005 95.6233C183.99 95.6466 185.749 93.8687 185.749 93.8687Z" fill="white"/>
</mask>
<g mask="url(#mask2_858_14168)">
<path d="M174.58 93.2139C174.249 94.8474 175.305 96.4387 176.938 96.7697C178.572 97.1008 180.163 96.0449 180.494 94.4128C180.825 92.7792 179.769 91.188 178.136 90.8569C176.503 90.5244 174.911 91.5804 174.58 93.2139Z" fill="#0E004D"/>
<path d="M176.117 93.5261C175.958 94.3108 176.466 95.0751 177.25 95.234C178.035 95.393 178.799 94.8855 178.958 94.1022C179.117 93.3175 178.61 92.5533 177.825 92.3943C177.04 92.2339 176.276 92.74 176.117 93.5261Z" fill="#05002D"/>
<path d="M175.783 92.8099C175.713 93.1542 175.936 93.4882 176.279 93.5582C176.623 93.6282 176.957 93.405 177.027 93.0623C177.097 92.7181 176.874 92.3826 176.532 92.3141C176.189 92.244 175.853 92.4657 175.783 92.8099Z" fill="white"/>
</g>
<path d="M185.749 93.8687C184.95 92.5692 183.708 91.5059 182.25 90.8977C180.802 90.2487 179.145 90.1277 177.586 90.3566C176.03 90.5958 174.51 91.2376 173.292 92.2483C172.082 93.2591 171.18 94.6359 170.842 96.128C171.514 94.7628 172.55 93.65 173.724 92.8113C174.923 92.0004 176.292 91.4622 177.728 91.2551C179.151 91.0319 180.621 91.0961 181.998 91.5584C183.374 92.0106 184.676 92.7938 185.749 93.8687Z" fill="#07003D"/>
<path d="M185.508 92.2919C184.84 90.9136 183.616 89.8241 182.203 89.1823C180.772 88.5406 179.157 88.4268 177.626 88.6252C176.088 88.8323 174.585 89.3997 173.346 90.3433C172.143 91.3045 171.108 92.5632 170.723 94.0523C170.985 93.3377 171.417 92.7047 171.905 92.1358C172.387 91.5597 172.944 91.0536 173.554 90.6248C174.175 90.212 174.83 89.8606 175.523 89.5893C176.226 89.353 176.945 89.1473 177.687 89.0744C178.422 88.9504 179.17 88.9475 179.91 88.9957C180.645 89.0803 181.376 89.229 182.068 89.5017C183.441 90.0501 184.681 91.0142 185.508 92.2919Z" fill="#AD625A"/>
<path d="M212.39 126.098C212.39 126.098 199.992 129.433 188.613 125.839C191.18 132.487 202.92 142.965 212.39 126.098Z" fill="#752727"/>
<path d="M206.249 133.368C200.123 137.56 194.05 133.819 190.715 129.471C200.398 128.287 205.018 132.105 206.249 133.368Z" fill="#B23030"/>
<path d="M210.034 126.607C209.697 127.352 208.825 128.622 206.611 129.194C203.924 129.888 196.089 130.628 190.42 129.082C189.627 127.986 189.01 126.866 188.613 125.839C196.985 128.484 205.902 127.377 210.034 126.607Z" fill="white"/>
<path d="M138.081 24.6897C138.081 24.6897 135.575 20.2193 138.727 16.2492C143.162 10.6631 148.629 14.9832 148.629 14.9832C145.467 2.53188 163.683 2.24309 166.358 7.17433C173.111 -3.16655 181.849 4.85238 182.44 7.59585C190.417 0.631431 194.961 10.5508 194.961 10.5508C205.398 2.95339 216.727 14.1388 213.807 19.4142C223.758 22.1577 220.805 30.3881 220.805 30.3881C229.035 30.3881 229.88 41.1505 225.659 42.628C239.798 49.1694 227.67 58.0328 223.077 55.5008C227.981 65.4187 217.164 69.8512 210.966 67.3192C210.966 67.3192 206.877 74.8393 200.334 68.0193C196.958 76.1826 186.191 71.9617 184.717 67.9522C181.553 73.8606 172.28 74.3055 170.82 68.5225C169.315 74.4951 164.882 71.7516 164.882 71.7516C166.36 79.7705 157.562 83.0843 157.562 83.0843C160.873 91.1674 153.884 91.7348 153.884 91.7348C154.477 97.0598 155.943 109.61 151.165 109.71C146.387 109.81 143.368 100.6 143.368 100.6C137.776 104.085 138.069 96.4487 137.337 92.6463C133.017 97.0744 127.53 94.3878 126.687 91.1936C122.254 95.8084 111.915 86.1005 115.501 79.3476C105.583 77.2371 104.739 65.0293 110.436 61.7433C100.518 50.4369 109.17 46.4274 113.601 47.0604C106.003 38.4085 117.822 35.4535 120.142 38.4085C119.088 29.5451 122.813 26.4822 126.474 28.7006C127.318 21.7347 135.549 21.9462 138.081 24.6897Z" fill="#07003D"/>
<path d="M197.792 198.941C197.792 198.941 196.138 202.748 194.089 207.569C195.508 212.137 219.319 360.227 219.319 360.227L202.8 386.38L172.518 350.169L179.945 209.936L173.263 202.407L183.931 193.681C183.931 193.683 193.945 192.851 197.792 198.941Z" fill="#07003D"/>
<path d="M196.131 197.003L197.507 199.599C197.507 199.599 191.047 195.725 187.05 195.852C183.054 195.979 182.981 199.786 182.319 203.021C181.658 206.256 188.763 207.716 193.077 207.716C186.733 209.048 183.274 210.305 182.275 212.754C181.511 214.629 184.698 358.506 185.385 365.555L173.263 360.335L179.945 209.937L173.263 202.408L183.931 193.682C183.931 193.682 191.642 193.045 196.131 197.003Z" fill="#07003D"/>
<path d="M197.966 157.776C197.966 157.776 199.337 162.557 201.574 168.763C203.813 174.969 209.773 189.594 204.687 208.821C199.092 198.141 189.899 193.786 183.931 193.683C190.068 186.359 197.559 161.303 197.966 157.776Z" fill="#5A90E4"/>
<path d="M148.41 148.648C148.41 148.648 146.693 165.994 154.839 172.538C165.405 181.027 178.644 191.121 183.931 193.684C180.2 198.363 168.51 203.463 169.528 214.043C146.13 199.598 142.728 180.882 140.328 166.84C140.595 152.8 148.41 148.648 148.41 148.648Z" fill="#5A90E4"/>
<path d="M140.328 162.416C140.328 162.416 100.411 180.305 73.8211 184.267C80.1525 236.98 88.291 310.649 80.6936 345.776C73.0962 380.902 51.7975 485.86 51.7975 490.849C113.418 503.436 145.783 491.541 158.444 489.822C171.106 488.106 183.367 474.883 187.365 428.737C191.363 382.591 181.235 275.107 179.969 259.419C178.703 243.731 154.709 225.866 140.328 162.416Z" fill="white"/>
<path d="M187.857 377.371C148.941 382.365 110.234 388.466 71.1403 391.469C62.2638 434.725 51.7975 487.35 51.7975 490.848C62.045 492.941 71.4641 494.345 80.1379 495.244C84.6374 466.03 101.483 439.311 135.14 434.504C141.471 433.238 145.269 421.842 152.867 419.309C164.98 415.272 175.486 424.1 187.587 425.926C188.509 412.94 188.453 395.777 187.857 377.371Z" fill="#F0F6F7"/>
<path d="M144.346 152.657C144.346 152.657 138.505 153.828 129.436 167.019C120.367 180.211 118.468 223.472 118.468 223.472L143.369 224.739L125.676 246.284C125.676 246.284 179.08 282.251 186.864 353.946C189.584 311.051 183.252 259.982 180.509 253.123C177.765 246.265 166.792 223.118 154.552 193.646C142.312 164.174 144.346 152.657 144.346 152.657Z" fill="#DFEEEF"/>
<path d="M144.346 152.657C144.346 152.657 138.505 153.828 129.436 167.019C120.367 180.211 116.99 217.985 116.99 217.985L144.346 220.94L126.908 238.667C126.908 238.667 179.079 282.251 186.863 353.945C189.584 311.05 183.252 259.982 180.509 253.123C177.765 246.265 166.791 223.118 154.551 193.646C142.312 164.173 144.346 152.657 144.346 152.657Z" fill="#F0F6F7"/>
<path d="M54.9478 200.498C63.3897 185.487 68.8752 183.047 75.6281 184.267C82.381 185.488 106.016 237.62 103.484 263.926C100.952 290.232 78.1601 330.968 57.9013 380.69C37.6425 430.413 -9.41802 401.699 1.55586 360.337C12.5312 318.975 46.5074 215.509 54.9478 200.498Z" fill="white"/>
<path d="M76.8955 190.552C76.8955 190.552 94.3204 205.536 98.9935 232.235C103.667 258.935 94.0199 290.014 94.0199 290.014C103.484 263.926 117.835 220.94 76.8955 190.552Z" fill="#F0F6F7"/>
<path d="M204.853 412.842L193.725 307.722L88.3438 272.452L87.1478 273.489L111.442 386.803L204.853 412.842Z" fill="#A7DCEA"/>
<path d="M203.657 413.879L192.529 308.759L87.1478 273.489L110.246 387.84L203.657 413.879Z" fill="#46AAC1"/>
<path d="M198.499 365.164L203.657 413.879L110.247 387.84L107.806 375.753C139.012 378.96 171.1 379.149 198.499 365.164Z" fill="#1D96AA"/>
<path d="M124.394 370.546C124.394 370.546 140.513 371.373 145.611 366.413C150.708 361.452 157.872 351.946 160.49 350.43C163.109 348.915 170.548 349.466 177.713 347.124C184.877 344.781 187.908 341.751 189.147 343.129C190.387 344.507 191.49 351.12 186.668 354.151C181.846 357.182 177.701 358.146 172.748 358.973C167.793 359.8 165.451 362.831 165.865 363.106C181.021 363.382 187.633 362.555 192.043 360.902C196.452 359.248 199.482 357.32 199.482 357.32C198.104 349.053 197.983 347.926 197.983 347.926C197.983 347.926 204.441 348.226 205.681 349.88C206.921 351.534 208.436 357.733 208.575 360.351C208.712 362.969 214.775 364.346 212.296 371.649C214.087 378.952 210.917 382.395 210.917 382.395C213.26 386.39 206.784 389.696 205.131 390.386C203.479 391.075 168.897 395.484 152.915 396.587C136.933 397.689 121.779 395.347 121.779 395.347L124.394 370.546Z" fill="#F7A192"/>
<path d="M124.394 370.546C124.394 370.546 140.513 371.373 145.611 366.413C150.708 361.452 157.872 351.946 160.49 350.43C163.109 348.915 170.548 349.466 177.713 347.124C184.877 344.781 187.908 341.751 189.147 343.129C190.387 344.507 191.49 351.12 186.668 354.151C181.846 357.182 177.701 358.146 172.748 358.973C167.793 359.8 156.232 364.132 162.643 365.174C177.799 365.45 187.633 362.555 192.041 360.902C196.45 359.248 198.978 357.328 198.978 357.328C198.043 349.91 197.983 347.927 197.983 347.927C197.983 347.927 204.441 348.228 205.681 349.882C206.921 351.536 208.436 357.735 208.575 360.353C208.712 362.971 214.775 364.347 212.296 371.65C214.087 378.953 210.917 382.397 210.917 382.397C213.26 386.391 206.784 389.698 205.131 390.388C203.479 391.076 168.897 395.485 152.915 396.588C136.933 397.691 121.779 395.348 121.779 395.348L124.394 370.546Z" fill="#FFB0A0"/>
<path d="M180.211 346.223C180.211 346.223 181.105 347.4 181.263 348.93C181.422 350.46 183.004 349.827 186.012 348.138C189.019 346.449 189.598 346.593 189.757 345.711C189.916 344.828 189.652 343.273 188.068 342.646C186.486 342.019 180.211 346.223 180.211 346.223Z" fill="#FFC6BD"/>
<path d="M124.392 370.546C124.392 370.546 135.538 371.115 142.224 368.453C136.208 384.443 149.877 393.012 164.165 395.598C159.954 396.019 156.067 396.366 152.911 396.585C136.928 397.688 121.774 395.345 121.774 395.345L124.392 370.546Z" fill="#F7A192"/>
<path d="M208.159 362.969C208.159 362.969 200.168 369.996 194.658 371.787C189.146 373.578 192.593 374.506 196.312 372.991C200.031 371.474 208.159 362.969 208.159 362.969Z" fill="#F9998A"/>
<path d="M212.122 371.631C212.122 371.631 203.329 377.623 197.64 378.724C191.951 379.825 195.006 381.212 198.884 380.165C202.761 379.118 212.122 371.631 212.122 371.631Z" fill="#F9998A"/>
<path d="M210.658 382.602C210.658 382.602 201.872 386.206 196.65 386.144C191.429 386.081 193.958 387.795 197.566 387.582C201.176 387.369 210.658 382.602 210.658 382.602Z" fill="#F9998A"/>
<path d="M140.155 397.27C140.155 397.27 142.829 405.472 140.155 411.185C138.48 414.761 135.448 416.68 132.26 414.761C129.073 412.842 121.067 402.313 121.121 399.253C121.176 396.194 140.155 397.27 140.155 397.27Z" fill="#DFEEEF"/>
<path d="M128.671 368.583L128.911 368.204H134.726L141.33 368.784C141.33 368.784 137.124 371.873 136.406 380.086C135.688 388.299 137.405 396.929 147.59 396.88C145.576 400.5 130.903 403.529 122.451 402.253C116.232 391.728 123.727 370.317 128.671 368.583Z" fill="#2866BF"/>
<path d="M128.671 368.583L128.911 368.204H132.903C131.163 369.362 130.215 371.471 129.628 373.228C125.219 383.305 127.031 394.209 133.148 402.125C129.364 402.612 125.502 402.714 122.451 402.253C116.232 391.728 123.727 370.317 128.671 368.583Z" fill="#2866BF"/>
<path d="M15.1362 359.639C30.7526 353.308 55.3038 357.069 55.8653 357.107C84.0818 359.006 110.617 363.106 134.726 368.204C134.726 368.204 121.913 373.577 123.567 390.936C125.219 408.295 132.26 414.761 132.26 414.761C132.26 414.761 43.8894 419.115 20.7442 406.303C0.376055 395.027 -0.32257 382.666 5.17895 366.659C5.17895 366.659 9.7339 361.83 15.1362 359.639Z" fill="white"/>
</g>
<mask id="mask3_858_14168" style="mask-type:luminance" maskUnits="userSpaceOnUse" x="0" y="0" width="488" height="494">
<path d="M488 0H0V494H488V0Z" fill="white"/>
</mask>
<g mask="url(#mask3_858_14168)">
<path d="M318.135 87.2802C318.135 87.2802 304.363 139.448 326.205 166.039C348.046 192.629 401.859 178.7 416.42 176.801C430.982 174.902 430.614 119.96 422.286 83.558C416.073 56.3975 318.135 87.2802 318.135 87.2802Z" fill="#0A0751"/>
<path d="M421.357 109.094C421.357 109.094 427.373 164.341 409.263 177.974C391.152 191.185 348.521 179.492 348.521 179.492C348.521 179.492 333.515 175.863 326.67 143.28C323.833 129.774 327.949 99.2693 332.168 89.9464C336.389 80.6221 351.266 79.9716 351.266 79.9716L421.357 109.094Z" fill="#07072B"/>
<path d="M351.545 177.141V171.097C353.998 169.758 356.254 167.66 357.688 164.388C362.458 153.503 358.474 137.53 358.474 137.53L399.348 121.599C399.348 121.599 395.833 146.309 398.85 157.569C401.868 168.829 409.323 172.895 409.323 172.895C409.323 172.895 428.476 232.719 384.993 234.31C347.369 235.687 349.026 198.97 346.215 189.547L351.545 177.141Z" fill="#FFB0A0"/>
<path d="M407.152 213.016C396.385 223.065 379.159 222.348 370.545 212.298C357.624 197.225 358.341 167.795 374.134 154.158C381.952 148.294 390.945 143.604 397.908 136.349C398.395 128.321 399.349 121.601 399.349 121.601L354.848 137.514C354.848 137.514 359.892 153.288 355.122 164.173C353.689 167.446 351.308 170.114 348.855 171.454L340.37 186.015V194.35C343.18 203.773 347.369 235.686 384.993 234.31C405.479 233.561 412.06 219.886 413.293 205.63C411.394 208.197 409.352 210.669 407.152 213.016Z" fill="#F7A192"/>
<path d="M337.335 97.6253C337.335 97.6253 332.775 91.2749 328.217 97.6253C323.658 103.976 330.077 114.271 335.761 115.209C341.445 116.147 341.201 113.866 340.835 111.668C340.468 109.47 337.335 97.6253 337.335 97.6253Z" fill="#EA8A7D"/>
<path d="M333.17 112.997C333.17 112.997 332.761 112.087 331.124 110.748C329.486 109.409 328.961 105.176 328.903 102.767C328.845 100.356 330.423 97.9464 331.359 97.3032C332.295 96.66 336.155 100.678 336.446 101.911C336.738 103.143 337.849 105.178 336.446 107.053C335.043 108.929 335.628 109.571 336.738 110.268C337.849 110.965 337.031 112.144 336.446 112.731C335.861 113.321 335.026 112.249 334.04 111.018C333.054 109.785 334.836 106.775 335.26 106.298C335.685 105.821 332.352 104.696 331.182 108.661C331.066 106.572 333.229 102.988 335.978 105.182C335.102 101.375 333.561 99.6791 332.431 98.8944C331.301 98.1083 330.52 100.645 330.092 103.145C329.663 105.644 329.935 108.859 331.028 109.68C332.119 110.497 332.858 111.996 333.17 112.997Z" fill="#CE5D57"/>
<path d="M412.658 99.0021C412.658 99.0021 417.765 92.6532 422.871 99.0021C427.977 105.352 420.808 118.969 414.442 119.907C408.076 120.845 408.327 115.243 408.736 113.045C409.148 110.847 412.658 99.0021 412.658 99.0021Z" fill="#FFB0A0"/>
<path d="M417.086 112.997C417.086 112.997 417.496 112.087 419.133 110.748C420.77 109.409 421.296 105.176 421.355 102.767C421.414 100.356 419.834 97.9463 418.899 97.3031C417.964 96.6599 414.104 100.678 413.812 101.911C413.52 103.143 412.409 105.178 413.812 107.053C415.215 108.929 414.63 109.571 413.52 110.268C412.409 110.965 413.227 112.143 413.812 112.731C414.397 113.32 415.231 112.248 416.218 111.017C417.204 109.785 415.422 106.775 414.998 106.298C414.573 105.821 417.907 104.696 419.076 108.661C419.192 106.572 417.029 102.988 414.28 105.182C415.157 101.375 416.697 99.679 417.827 98.8943C418.958 98.1081 419.738 100.645 420.167 103.144C420.595 105.644 420.323 108.859 419.232 109.68C418.138 110.497 417.398 111.996 417.086 112.997Z" fill="#E8867C"/>
<path d="M349.903 56.6628C349.903 56.6628 336.551 68.0597 335.087 90.2831C333.621 112.507 336.878 131.8 349.903 141.813C362.927 151.825 375.47 150.89 391.501 142.056C403.468 135.462 412.015 116.589 412.504 102.825C412.992 89.0609 413.481 69.1973 401.025 56.6614C388.571 44.1269 360.322 48.9298 349.903 56.6628Z" fill="#FFB0A0"/>
<path d="M355.13 142.265C342.105 132.252 342.797 118.574 344.261 96.3506C345.727 74.1271 355.13 57.1135 355.13 57.1135C361.225 52.5892 373.42 49.0756 384.986 49.4417C372.056 47.5748 356.928 51.4472 349.903 56.6614C349.903 56.6614 336.553 68.0582 335.087 90.2817C333.621 112.505 336.878 131.798 349.903 141.811C356.367 146.78 362.711 149.05 369.423 148.999C364.594 148.119 359.895 145.927 355.13 142.265Z" fill="#F7A192"/>
<path d="M336.073 90.9656C336.073 90.9656 334.596 105.822 336.39 117.217C333.435 109.409 332.592 93.855 332.697 91.7139C332.802 89.5742 336.073 90.9656 336.073 90.9656Z" fill="#0A0751"/>
<path opacity="0.56" d="M402.172 112.997C402.172 116.843 399.053 119.96 395.209 119.96C391.363 119.96 388.246 116.841 388.246 112.997C388.246 109.151 391.364 106.034 395.209 106.034C399.053 106.032 402.172 109.151 402.172 112.997Z" fill="#FF9797"/>
<path d="M377.458 98.5384C377.458 98.5384 372.085 91.0664 378.923 82.6406C386.249 81.5423 391.18 80.4047 394.186 82.6406C397.192 84.8765 397.615 91.4427 395.901 95.1824C392.785 92.2376 390.767 90.1301 383.767 92.0845C381.407 93.0602 377.908 95.5499 377.458 98.5384Z" fill="#F7A192"/>
<path d="M357.303 98.7235C357.303 98.7235 359.509 91.393 354.949 83.5564C351.286 81.7435 345.75 81.6253 345.75 81.6253L339.273 97.0506C339.273 97.0506 348.173 95.6883 351.252 96.0705C355.407 96.5868 357.303 98.7235 357.303 98.7235Z" fill="#F7A192"/>
<path d="M377.273 95.6154C377.273 95.6154 379.866 91.2194 386.086 91.5374C392.303 91.8553 395.258 97.1483 395.258 97.1483C393.174 96.8755 391.504 99.1902 385.307 99.3025C379.109 99.4148 377.273 95.6154 377.273 95.6154Z" fill="white"/>
<mask id="mask4_858_14168" style="mask-type:luminance" maskUnits="userSpaceOnUse" x="377" y="91" width="19" height="9">
<path d="M377.273 95.6154C377.273 95.6154 379.866 91.2194 386.086 91.5374C392.303 91.8553 395.258 97.1483 395.258 97.1483C393.174 96.8755 391.504 99.1902 385.307 99.3025C379.109 99.4148 377.273 95.6154 377.273 95.6154Z" fill="white"/>
</mask>
<g mask="url(#mask4_858_14168)">
<path d="M390.718 94.6031C391.157 96.6275 389.87 98.6242 387.846 99.0632C385.822 99.5022 383.825 98.2158 383.386 96.1914C382.947 94.167 384.233 92.1703 386.259 91.7313C388.282 91.2922 390.279 92.5772 390.718 94.6031Z" fill="#0E004D"/>
<path d="M388.813 95.0142C389.023 95.987 388.406 96.9467 387.433 97.1567C386.46 97.3667 385.501 96.7498 385.291 95.777C385.081 94.8041 385.698 93.8444 386.67 93.6344C387.643 93.4244 388.602 94.0428 388.813 95.0142Z" fill="#05002D"/>
<path d="M389.214 94.1201C389.306 94.546 389.036 94.9661 388.61 95.0594C388.185 95.1513 387.763 94.8815 387.671 94.4541C387.579 94.0283 387.849 93.6082 388.276 93.5149C388.702 93.423 389.122 93.6943 389.214 94.1201Z" fill="white"/>
</g>
<path d="M377.273 95.6153C378.246 93.9862 379.773 92.6458 381.574 91.864C383.365 91.0327 385.423 90.8547 387.363 91.1143C389.302 91.3871 391.202 92.1586 392.732 93.394C394.253 94.6308 395.397 96.3271 395.843 98.1779C394.984 96.4919 393.679 95.1253 392.205 94.1029C390.702 93.1154 388.991 92.4678 387.201 92.2345C385.428 91.9807 383.6 92.0843 381.898 92.6823C380.196 93.2671 378.59 94.2604 377.273 95.6153Z" fill="#0A0751"/>
<path d="M395.071 97.4473C395.071 97.4473 394.084 100.379 390.028 102.818C385.972 105.256 377.725 103.363 376.946 96.3388C379.049 100.37 381.749 102.373 387.109 102.075C392.468 101.778 395.071 97.4473 395.071 97.4473Z" fill="#F7A192"/>
<path d="M377.547 93.6507C378.354 91.9253 379.858 90.55 381.605 89.7303C383.374 88.9091 385.378 88.7414 387.286 88.9631C389.2 89.195 391.078 89.8761 392.634 91.0283C394.147 92.2025 395.454 93.7499 395.958 95.5964C395.62 94.7125 395.073 93.9322 394.456 93.2336C393.848 92.5262 393.146 91.9049 392.382 91.3828C391.603 90.881 390.782 90.4537 389.917 90.1284C389.039 89.8455 388.142 89.6019 387.217 89.5232C386.301 89.3817 385.371 89.3904 384.452 89.4619C383.539 89.5786 382.633 89.7769 381.777 90.127C380.081 90.8314 378.557 92.0478 377.547 93.6507Z" fill="#AD625A"/>
<path d="M358.905 95.7204C358.905 95.7204 356.66 91.1363 350.437 90.97C344.212 90.8037 340.856 95.8516 340.856 95.8516C342.955 95.7423 344.439 98.1794 350.61 98.7716C356.78 99.3652 358.905 95.7204 358.905 95.7204Z" fill="white"/>
<mask id="mask5_858_14168" style="mask-type:luminance" maskUnits="userSpaceOnUse" x="340" y="90" width="19" height="9">
<path d="M358.905 95.7204C358.905 95.7204 356.66 91.1363 350.437 90.97C344.212 90.8037 340.856 95.8516 340.856 95.8516C342.955 95.7423 344.439 98.1794 350.61 98.7716C356.78 99.3652 358.905 95.7204 358.905 95.7204Z" fill="white"/>
</mask>
<g mask="url(#mask5_858_14168)">
<path d="M347.459 93.5225C346.865 95.5076 347.991 97.5976 349.976 98.1927C351.961 98.7863 354.051 97.6589 354.646 95.6753C355.24 93.6903 354.114 91.6002 352.129 91.0066C350.144 90.4115 348.054 91.5389 347.459 93.5225Z" fill="#0E004D"/>
<path d="M349.327 94.0828C349.042 95.0366 349.584 96.0401 350.537 96.3259C351.49 96.6118 352.494 96.0692 352.78 95.1168C353.066 94.163 352.525 93.1595 351.571 92.8736C350.617 92.5878 349.612 93.1289 349.327 94.0828Z" fill="#05002D"/>
<path d="M348.996 93.1595C348.87 93.5766 349.108 94.0171 349.525 94.1425C349.942 94.268 350.383 94.0302 350.508 93.6131C350.634 93.1959 350.396 92.7555 349.979 92.63C349.56 92.5032 349.12 92.7409 348.996 93.1595Z" fill="white"/>
</g>
<path d="M358.905 95.7205C358.062 94.0213 356.643 92.5643 354.907 91.6469C353.186 90.6799 351.148 90.3415 349.194 90.4509C347.241 90.5719 345.287 91.1947 343.665 92.3076C342.052 93.4219 340.78 95.0248 340.192 96.8348C341.179 95.2202 342.587 93.9586 344.136 93.0543C345.711 92.1865 347.469 91.6746 349.27 91.5798C351.058 91.4645 352.871 91.7096 354.522 92.4388C356.173 93.1521 357.697 94.2678 358.905 95.7205Z" fill="#0A0751"/>
<path d="M341.019 96.1668C341.019 96.1668 341.776 99.1669 345.631 101.912C349.486 104.658 357.853 103.411 359.175 96.4672C356.765 100.324 353.918 102.11 348.597 101.397C343.278 100.685 341.019 96.1668 341.019 96.1668Z" fill="#F7A192"/>
<path d="M358.784 93.7412C358.113 91.9589 356.722 90.4712 355.043 89.5174C353.344 88.5606 351.359 88.2383 349.438 88.3112C347.512 88.3943 345.586 88.9267 343.945 89.9564C342.346 91.0094 340.923 92.4504 340.277 94.2517C340.682 93.397 341.289 92.6619 341.957 92.0129C342.619 91.3551 343.366 90.7892 344.17 90.3283C344.985 89.8878 345.837 89.5261 346.725 89.2694C347.623 89.0565 348.536 88.8829 349.464 88.8756C350.389 88.8056 351.315 88.8873 352.225 89.0288C353.126 89.2169 354.015 89.4838 354.84 89.8995C356.478 90.7323 357.903 92.0654 358.784 93.7412Z" fill="#AD625A"/>
<path d="M379.807 83.0212C379.807 83.0212 384.569 81.3118 390.429 81.3118C396.291 81.3118 401.094 85.7078 401.094 85.7078C395.72 79.1955 392.058 78.5436 387.58 78.3C383.103 78.0564 379.359 79.0322 378.218 79.8475C377.079 80.6599 377.079 82.8579 379.807 83.0212Z" fill="#0A0751"/>
<path d="M356.632 84.5935C356.632 84.5935 351.87 82.8841 346.009 82.8841C340.147 82.8841 335.344 87.2801 335.344 87.2801C340.717 80.7678 344.379 80.1158 348.857 79.8723C353.335 79.6287 357.079 80.6044 358.219 81.4198C359.36 82.2336 359.36 84.4316 356.632 84.5935Z" fill="#0A0751"/>
<path d="M365.232 98.9818C365.232 98.9818 365.774 102.958 363.025 106.228C363.025 106.228 361.358 108.243 360.486 109.337C359.323 110.793 360.216 112.555 361.851 111.812C362.363 111.579 363.619 110.304 364.383 108.563C365.147 106.821 366.549 102.099 365.232 98.9818Z" fill="#FFC6BD"/>
<path d="M358.826 113.828C358.826 113.828 358.273 116.303 363.311 118.291C368.349 120.279 374.734 117.209 374.072 113.497C372.148 115.485 364.195 117.606 358.826 113.828Z" fill="#F7A192"/>
<path d="M362.23 88.2572C362.574 89.987 362.889 91.7183 363.096 93.4626C363.325 95.2012 363.484 96.9485 363.474 98.6856C363.451 100.412 363.328 102.17 362.644 103.68C361.981 105.211 360.769 106.427 359.395 107.466C358.715 108.003 357.987 108.494 357.287 109.105C356.943 109.419 356.588 109.747 356.322 110.206C356.184 110.431 356.087 110.678 356.018 110.975C355.953 111.305 356.034 111.607 356.129 111.868C356.589 112.867 357.362 113.427 358.117 113.945C358.884 114.454 359.71 114.842 360.557 115.154C362.25 115.779 364.036 116.129 365.827 116.162C367.613 116.162 369.416 115.865 371.023 115.122C369.34 115.655 367.577 115.841 365.849 115.683C364.12 115.558 362.415 115.135 360.837 114.457C360.05 114.115 359.29 113.713 358.597 113.236C357.919 112.768 357.249 112.168 356.994 111.535C356.74 111.039 357.31 110.346 357.919 109.824C358.55 109.282 359.29 108.787 359.996 108.239C361.406 107.152 362.776 105.792 363.493 104.049C364.212 102.301 364.307 100.449 364.225 98.6739C364.049 95.1006 363.302 91.6191 362.23 88.2572Z" fill="#ED857A"/>
<path d="M370.906 137.53C371.113 137.28 364.8 139.972 360.404 137.53C362.032 140.135 366.917 142.333 370.906 137.53Z" fill="#F7A192"/>
<path d="M354.854 121.017C354.854 121.017 372.282 123.263 381.797 121.017C377.328 130.725 362.021 139.147 354.854 121.017Z" fill="#752727"/>
<path d="M381.529 121.076C372.991 122.989 358.467 121.443 355.43 121.087C355.849 121.614 356.851 122.659 358.56 123.18C360.895 123.892 371.815 124.486 376.049 123.695C379.303 123.087 380.941 121.692 381.529 121.076Z" fill="white"/>
<path d="M367.62 125.712C363.604 124.922 360.56 127.214 359.365 128.317C365.023 133.967 372.372 131.758 377.375 127.058C373.536 124.697 372.318 126.638 367.62 125.712Z" fill="#B23030"/>
<path d="M386.266 49.6433C386.266 49.6433 385.002 75.5582 354.84 89.8998C363.718 87.9906 386.815 73.0394 388.244 48.9666C389.041 41.3531 386.266 49.6433 386.266 49.6433Z" fill="#0A0751"/>
<path d="M386.559 54.6488C386.559 54.6488 351.953 112.692 312.701 89.8997C315.814 59.4736 330.872 19.4854 378.354 29.6148C394.181 24.1279 423.432 47.9877 423.22 99.4792C420.853 96.1815 413.046 94.1907 411.99 102.21C406.293 80.6848 395.633 57.8138 386.559 54.6488Z" fill="#0A0751"/>
<path d="M411.99 102.209C412.753 96.4134 417.038 95.8576 420.252 97.2345C407.361 56.6717 386.558 54.6487 386.558 54.6487C395.633 57.8137 406.293 80.6833 411.99 102.209Z" fill="#07072B"/>
<path d="M386.753 112.03C379.313 112.03 373.262 105.978 373.262 98.5385C373.262 91.1001 379.313 85.0487 386.753 85.0487C394.193 85.0487 400.243 91.1001 400.243 98.5385C400.243 105.977 394.193 112.03 386.753 112.03ZM386.753 86.3132C380.012 86.3132 374.528 91.7972 374.528 98.537C374.528 105.278 380.012 110.762 386.753 110.762C393.493 110.762 398.979 105.278 398.979 98.537C398.979 91.7972 393.495 86.3132 386.753 86.3132Z" fill="#55556D"/>
<path d="M348.555 112.03C341.115 112.03 335.064 105.978 335.064 98.5385C335.064 91.1001 341.115 85.0487 348.555 85.0487C355.995 85.0487 362.046 91.1001 362.046 98.5385C362.046 105.977 355.995 112.03 348.555 112.03ZM348.555 86.3132C341.814 86.3132 336.33 91.7972 336.33 98.537C336.33 105.278 341.814 110.762 348.555 110.762C355.296 110.762 360.78 105.278 360.78 98.537C360.78 91.7972 355.296 86.3132 348.555 86.3132Z" fill="#55556D"/>
<path d="M375.218 92.8138C366.429 88.8963 360.162 92.7322 360.099 92.7701L359.421 91.701C359.696 91.5245 366.292 87.4494 375.733 91.6572L375.218 92.8138Z" fill="#55556D"/>
<path d="M413.68 98.1184L399.593 97.4679L399.631 96.2019L415.82 96.8101L413.68 98.1184Z" fill="#55556D"/>
<path d="M348.734 190.552C348.734 190.552 350.955 210.175 370.545 212.298C390.134 214.422 401.914 197.516 401.914 197.516C401.914 197.516 387.059 239.933 370.957 245.21C354.854 250.484 348.734 190.552 348.734 190.552Z" fill="#EF4D8F"/>
<path d="M297.044 477.13V576.737L493.588 570.828L468.635 454.424L297.044 477.13Z" fill="#07003D"/>
<path d="M354.378 165.651C354.378 165.651 330.935 186.957 318 187.717C305.064 188.478 288.705 197.989 284.52 202.173C294.031 222.718 304.684 248.968 299.738 270.274C294.792 291.579 291.748 314.406 297.455 327.723C303.162 341.039 296.313 376.046 290.988 425.691C285.662 475.336 284.521 496.33 284.521 496.33C284.521 496.33 354.143 513.762 370.883 476.859C387.622 439.955 375.448 238.62 375.448 238.62C375.448 238.62 341.348 210.599 354.378 165.651Z" fill="white"/>
<path d="M344.959 377.735C356.363 375.075 367.864 374.983 379.805 374.57C379.775 361.769 379.503 345.329 379.223 332.787H298.873C301.339 346.736 288.8 423.53 284.521 496.33C296.819 419.73 324.747 383.311 344.959 377.735Z" fill="#F0F6F7"/>
<path d="M402.331 165.651C402.331 165.651 407.4 209.123 367.839 238.62C364.986 282.449 366.697 465.636 367.839 467.918C368.981 470.201 363.844 495.877 420.912 500.445C477.979 505.013 487.681 478.762 487.681 478.762C487.681 478.762 451.729 357.208 449.446 314.978C447.163 272.748 450.016 208.722 460.289 191.942C436.891 183.722 415.63 180.634 402.331 165.651Z" fill="white"/>
<path d="M451.529 332.787H366.281C366.268 345.746 365.494 362.263 365.552 375.104C401.332 375.104 429.404 373.392 456.53 359.06C454.508 349.608 452.783 340.682 451.529 332.787Z" fill="#F0F6F7"/>
<path d="M365.549 373.304C365.549 373.304 364.333 461.391 370.883 476.859C377.433 492.327 396.26 496.33 396.26 496.33C396.26 496.33 375.746 491.904 372.791 472.066C369.836 452.229 369.836 373.304 369.836 373.304H365.549Z" fill="#F0F6F7"/>
<path d="M339.306 306.797C339.306 306.797 335.121 328.863 339.306 351.31C362.514 360.059 405.884 361.201 424.527 357.777C443.17 354.352 452.681 353.592 467.899 350.548C483.117 347.504 485.4 315.547 486.161 298.427C486.922 281.307 484.259 256.578 481.596 247.447C478.932 238.317 471.134 194.264 460.291 191.942C449.449 189.62 441.65 234.703 442.982 250.872C444.313 267.041 443.171 294.053 440.509 297.858C433.851 302.614 413.782 308.13 401.227 308.416C388.669 308.699 359.089 312.504 339.306 306.797Z" fill="white"/>
<path d="M446.361 275.201C446.361 275.201 450.08 272.464 451.822 273.714C453.563 274.964 449.764 279.475 450.556 279.158C451.348 278.842 455.385 275.28 457.956 277.814C460.528 280.346 449.923 292.216 449.923 292.216C449.923 292.216 455.366 287.848 457.511 288.331C459.657 288.814 457.758 292.295 456.412 294.037C455.067 295.778 452.732 297.241 452.732 297.241L438.895 301.914L446.361 275.201Z" fill="#F0F6F7"/>
<path d="M455.932 200.498C455.932 200.498 440.927 219.048 443.587 242.894C446.247 266.739 447.386 282.398 449.602 291.184C451.817 299.97 441.371 321.813 440.738 322.762C440.105 323.712 434.407 316.747 434.407 316.747C434.407 316.747 448.967 310.311 443.587 281.716C438.205 253.122 431.559 223.528 455.932 200.498Z" fill="#F0F6F7"/>
<path d="M442.489 263.317C442.489 263.317 440.763 237.823 456.474 236.346C472.186 234.869 469.654 243.113 464.378 242.895C459.103 242.678 449.376 252.185 449.175 261.675C455.303 253.65 470.583 258.726 468.43 261.675C466.277 264.624 454.882 266.945 454.037 270.744C453.193 274.542 455.449 275.12 452.106 283.906C448.762 292.692 442.883 287.651 442.883 287.651L442.489 263.317Z" fill="#F0F6F7"/>
<path d="M284.521 202.173C284.521 202.173 276.531 212.065 270.064 232.99C263.597 253.914 253.122 283.925 250.762 297.378C246.015 324.444 251.683 335.13 255.629 343.499C259.576 351.87 306.679 365.387 332.123 368.81C357.568 372.235 390.668 368.81 390.668 368.81V333.046C390.668 333.046 336.201 324.297 323.106 319.351C310.012 314.405 303.549 306.207 302.305 302.231C301.061 298.255 301.064 274.073 300.972 257.335C300.88 240.598 295.173 202.935 284.521 202.173Z" fill="#F0F6F7"/>
<path d="M284.521 202.173C284.521 202.173 278.783 212.253 272.316 233.179C265.849 254.102 260.173 284.351 257.129 297.667C254.085 310.983 258.307 329.452 262.255 337.821C266.202 346.192 309.134 361.741 334.577 365.164C360.023 368.589 388.706 366.761 388.706 366.761L390.666 333.046C390.666 333.046 336.199 324.297 323.105 319.351C310.01 314.405 303.548 306.207 302.303 302.231C301.059 298.255 301.062 274.073 300.97 257.335C300.88 240.598 295.173 202.935 284.521 202.173Z" fill="white"/>
<path d="M266.642 304.245L263.262 306.688C263.262 306.688 262.607 308.914 266.642 308.755C270.678 308.597 280.57 308.692 280.808 308.763C281.045 308.835 264.901 320.293 263.556 321.291C262.212 322.288 259.649 324.155 259.649 324.155C259.649 324.155 258.412 329.41 268.622 327.036C266.011 331.071 262.408 332.787 262.408 332.787C262.408 332.787 263.794 336.532 268.622 335.425C273.449 334.317 282.47 328.777 289.513 331.863C284.132 336.216 277.482 347.149 277.482 347.149C277.482 347.149 283.182 347.532 285.793 344.684C288.405 341.835 297.188 334.792 309.217 341.438C321.245 348.086 341.691 348.676 341.691 348.676L345.631 326.459L325.835 310.258C325.835 310.258 299.245 300.445 296.396 299.971C293.549 299.496 266.642 304.245 266.642 304.245Z" fill="#F0F6F7"/>
<path d="M291.334 200.498C291.334 200.498 306.339 219.048 303.679 242.894C301.018 266.739 299.879 282.398 297.664 291.184C295.448 299.97 305.894 321.813 306.527 322.762C307.16 323.712 312.859 316.747 312.859 316.747C312.859 316.747 298.298 310.311 303.679 281.716C309.059 253.122 315.707 223.528 291.334 200.498Z" fill="#F0F6F7"/>
<path d="M441.059 256.92C441.059 256.92 441.059 281.162 425.548 293.574C410.037 305.985 390.094 301.323 371.103 301.913C352.11 302.503 346.73 307.156 327.104 302.298C307.478 297.439 301.562 283.576 302.305 276.737C297.597 297.206 308.744 322.851 308.744 322.851C308.744 322.851 329.636 348.401 373.32 345.553C417.003 342.704 444.432 324.345 448.426 314.848C452.421 305.352 441.059 256.92 441.059 256.92Z" fill="#F0F6F7"/>
<path d="M418.059 308.509C418.059 308.509 429.852 297.856 433.466 290.247C437.081 282.638 443.358 275.22 447.734 273.889C452.109 272.557 447.02 279.167 444.452 283.162C441.883 287.157 434.608 300.852 432.326 305.276C430.043 309.698 418.059 308.509 418.059 308.509Z" fill="#FFB0A0"/>
<path d="M429.044 310.411C429.044 310.411 436.178 296.573 440.03 289.153C443.882 281.734 451.301 276.884 454.297 276.741C457.293 276.598 455.628 280.07 453.63 282.163C451.634 284.254 443.549 294.242 440.6 301.756C437.652 309.269 429.044 310.411 429.044 310.411Z" fill="#FFB0A0"/>
<path d="M438.895 300.428C438.895 300.428 447.917 287.838 456.886 288.154C459.313 288.471 457.202 290.872 454.591 292.533C451.981 294.194 447.469 299.814 445.411 301.396C443.353 302.979 438.895 300.428 438.895 300.428Z" fill="#FFB0A0"/>
<path d="M448.524 273.387C448.524 273.387 448.893 274.093 448.947 274.542C449 274.99 445.746 277.602 445.17 277.892C444.594 278.183 444.366 277.138 443.043 276.895C444.842 274.777 447.18 273.314 448.524 273.387Z" fill="#FFC6BD"/>
<path d="M448.425 279.713C448.425 279.713 449.961 280.465 450.635 281.454C451.861 281.613 455.194 278.363 455.534 277.943C455.874 277.523 454.294 276.31 453.305 276.231C452.316 276.151 448.867 278.881 448.425 279.713Z" fill="#FFC6BD"/>
<path d="M451.877 289.177C451.877 289.177 455.015 287.86 456.228 287.65C457.441 287.441 458.048 288.776 457.599 289.177C457.151 289.578 454.38 290.971 453.642 291.184C452.904 291.398 453.066 289.884 451.877 289.177Z" fill="#FFC6BD"/>
<path d="M430.613 301.348C430.613 301.348 440.358 286.089 445.169 282.275C441.376 284.617 433.7 295.024 431.443 298.23C429.188 301.434 428.278 302.305 428.436 303.058C428.593 303.81 429.89 302.465 430.613 301.348Z" fill="#F7A192"/>
<path d="M446.354 292.596C446.354 292.596 438.157 300.498 436.151 304.983C434.147 309.468 434.093 305.88 434.885 304.561C435.677 303.241 442.627 294.401 446.354 292.596Z" fill="#F7A192"/>
<path d="M342.729 311.743C342.729 311.743 332.457 309.08 318.57 304.324C304.684 299.569 295.221 295.574 287.515 295.431C279.812 295.288 265.782 301.851 263.594 304.704C261.406 307.557 265.307 307.557 269.491 306.417C273.676 305.274 284.804 301.851 292.127 305.941C278.907 306.797 274.294 308.937 270.583 311.743C266.874 314.549 259.646 322.348 259.646 324.155C259.646 325.962 263.165 326.391 266.351 324.536C269.538 322.68 275.624 317.926 278.05 316.594C280.475 315.262 288.655 314.739 292.174 316.262C283.803 316.737 280.332 316.975 276.67 319.543C273.008 322.112 263.187 329.744 262.403 331.812C261.618 333.88 265.47 334.951 270.321 332.454C275.172 329.957 281.021 325.177 284.517 324.679C288.013 324.18 295.892 325.261 296.66 325.647C288.013 329.387 285.373 331.741 282.449 335.094C279.524 338.447 276.171 343.725 275.885 345.794C275.599 347.862 279.451 347.792 282.733 344.01C286.015 340.229 291.863 336.805 294.789 336.091C297.713 335.378 302.636 333.952 310.483 336.377C318.329 338.803 334.736 338.09 341.584 334.238C348.436 330.384 342.729 311.743 342.729 311.743Z" fill="#FFB0A0"/>
<path d="M262.844 304.857C262.844 304.857 263.082 306.104 263.577 306.38C264.071 306.657 267.118 304.659 267.296 304.52C267.296 304.125 266.88 304.006 266.663 303.373C266.446 302.74 266.613 302.363 266.613 302.363C266.613 302.363 263.695 303.968 262.844 304.857Z" fill="#FFC6BD"/>
<path d="M275.715 345.982C275.715 345.982 276.609 346.883 277.173 346.835C277.738 346.788 279.148 343.428 279.218 343.213C278.996 342.885 278.586 343.02 278.051 342.616C277.516 342.212 277.549 341.978 277.549 341.978C277.549 341.978 275.922 344.767 275.715 345.982Z" fill="#FFC6BD"/>
<path d="M259.602 323.672C259.602 323.672 260.114 324.86 261.361 325.354C262.766 324.642 264.784 321.734 264.903 321.436C265.021 321.14 263.17 320.48 262.76 319.425C260.905 321.199 259.602 323.672 259.602 323.672Z" fill="#FFC6BD"/>
<path d="M262.413 331.545C262.413 331.545 262.748 332.794 263.911 333.463C265.403 332.962 267.821 330.376 267.98 330.098C268.139 329.821 266.405 328.902 266.151 327.798C264.061 329.286 262.413 331.545 262.413 331.545Z" fill="#FFC6BD"/>
<path d="M343.563 309.309H334.138C334.138 309.309 328.911 327.826 332.121 340.33C344.037 340.172 346.886 336.849 346.886 336.849L343.563 309.309Z" fill="#EF4D8F"/>
<path d="M449.446 297.362C441.605 301.857 412.901 308.148 401.224 308.413C388.669 308.699 360.745 310.525 341.603 308.622C341.603 308.622 339.008 331.364 343.193 353.811C367.973 360.412 405.884 361.2 424.527 357.775C443.168 354.351 452.681 353.591 467.897 350.547C479.283 348.27 483.428 329.808 485.111 313.484C473.184 302.639 465.513 296.265 449.446 297.362Z" fill="white"/>
<path d="M436.964 301.913C436.964 301.913 461.212 295.855 475.983 311.472C471.552 299.443 454.078 289.61 436.964 301.913Z" fill="#F0F6F7"/>
<path d="M356.801 158.101C356.801 158.101 339.345 171.152 329.636 202.173C340.5 204.389 346.215 206.59 346.215 206.59L328.901 215.665C328.901 215.665 339.66 239.313 375.324 242.894C380.916 242.043 380.916 242.043 380.916 242.043C380.916 242.043 343.132 203.942 356.801 158.101Z" fill="#DFEEEF"/>
<path d="M356.801 158.101C356.801 158.101 338.61 166.705 328.899 197.726C339.764 199.942 346.213 206.59 346.213 206.59H328.899C328.899 206.59 339.659 239.313 375.323 242.894C380.915 242.043 380.914 242.043 380.914 242.043C380.914 242.043 347.832 208.684 354.778 166.836C355.1 164.892 355.749 163.321 356.194 161.078C356.352 160.288 356.62 159.029 356.801 158.101Z" fill="#F0F6F7"/>
<path d="M400.583 162.416C400.583 162.416 407.222 167.213 412.693 174.556C418.162 181.9 422.246 202.475 422.314 208.174C413.292 209.957 404.446 210.601 404.446 210.601L423.334 223.685C423.334 223.685 392.418 246.687 372.37 253.652C352.323 260.616 352.323 281.718 352.323 281.718C352.323 281.718 350.846 254.073 371.738 235.08C392.628 216.086 404.235 191.854 400.583 162.416Z" fill="#DFEEEF"/>
<path d="M400.583 162.416C400.583 162.416 407.222 167.213 412.693 174.556C418.162 181.9 422.246 198.149 422.315 203.848C413.292 205.631 404.446 210.601 404.446 210.601L422.315 218.046C422.315 218.046 392.416 246.687 372.369 253.652C352.322 260.616 352.322 281.718 352.322 281.718C352.322 281.718 350.844 254.073 371.736 235.08C392.628 216.086 404.235 191.854 400.583 162.416Z" fill="#F0F6F7"/>
<path d="M344.959 350.776C344.017 350.487 343.191 349.984 342.451 349.367C342.671 350.846 342.916 352.329 343.191 353.811C343.779 353.967 344.382 354.117 344.984 354.267C345.325 354.352 345.68 354.439 346.047 354.528C370.803 360.463 406.584 361.07 424.526 357.775C431.543 356.486 437.266 355.574 442.487 354.776C395.476 359.165 350.627 352.517 344.959 350.776Z" fill="#F0F6F7"/>
<path d="M404.973 389.553L458.479 387.338L460.685 399.05L404.973 401.265V389.553Z" fill="#F0F6F7"/>
<path d="M298.942 391.874C301.474 391.557 349.033 391.657 349.033 391.657V402.102L297.044 403.509L298.942 391.874Z" fill="#F0F6F7"/>
<path d="M297.39 391.642C297.39 391.642 315.69 388.907 349.033 391.656C331.306 392.93 305.68 393.52 297.39 391.642Z" fill="#DFEEEF"/>
<path d="M404.973 389.553C404.973 389.553 439.407 386.388 458.479 387.338C450.96 390.608 420.818 391.031 404.973 389.553Z" fill="#DFEEEF"/>
<path d="M298.614 295.03C298.614 295.03 295.765 262.935 272.34 253.122C286.585 255.338 303.995 276.953 298.614 295.03Z" fill="#F0F6F7"/>
<path d="M334.871 187.132C330.968 202.121 334.334 216.061 339.264 228.281C339.611 227.553 340.237 227.066 340.967 226.825C336.32 215.1 333.239 201.816 336.923 187.665C341.421 170.394 351.256 161.532 356.839 157.699L357.136 154.611C351.883 157.751 340.136 166.915 334.871 187.132Z" fill="#07003D"/>
<path d="M356.554 304.56C355.987 304.644 355.453 304.261 355.354 303.692C355.253 303.114 355.64 302.566 356.218 302.465C359.711 301.859 362.588 300.639 362.733 299.996C362.756 297.969 358.134 254.728 356.339 245.122C354.947 237.678 351.609 228.632 343.601 227.808C340.693 227.511 337.983 228.357 335.768 230.259C332.512 233.049 330.558 237.801 330.262 243.636C329.658 255.525 333.453 299.903 334.916 302.55C335.836 303.612 339.789 303.95 342.284 303.831C342.869 303.803 343.367 304.254 343.394 304.84C343.422 305.425 342.977 305.915 342.385 305.95C341.208 306.007 335.237 306.172 333.255 303.864C331.007 301.246 327.648 253.259 328.141 243.53C328.468 237.108 330.683 231.822 334.384 228.65C337.054 226.36 340.317 225.341 343.816 225.701C351.184 226.459 356.235 233.041 358.421 244.736C360.227 254.399 364.875 297.976 364.851 300.034C364.816 302.832 359.053 304.131 356.576 304.56C356.572 304.558 356.563 304.558 356.554 304.56Z" fill="#07003D"/>
<path d="M339.191 304.329C339.191 304.329 339.246 303.349 340.047 303.33C340.847 303.311 343.107 303.177 343.681 303.66C344.256 304.144 344.066 306.243 343.715 306.584C343.363 306.924 340.741 306.644 339.972 306.659C339.204 306.673 339.083 305.183 339.191 304.329Z" fill="#66657A"/>
<path d="M359.441 301.99C359.441 301.99 359.205 301.224 358.432 301.439C357.66 301.654 355.358 302.028 354.95 302.658C354.542 303.288 355.325 305.133 355.761 305.356C356.196 305.579 358.633 304.656 359.371 304.446C360.109 304.236 359.792 302.775 359.441 301.99Z" fill="#66657A"/>
<path d="M343.873 225.171C340.223 224.795 336.825 225.86 334.041 228.244C330.23 231.513 327.946 236.931 327.613 243.5C327.579 244.177 327.569 245.135 327.578 246.283L330.736 246.022C330.74 245.134 330.758 244.333 330.791 243.662C331.08 237.973 332.969 233.356 336.112 230.66C338.215 228.854 340.788 228.05 343.547 228.335C350.792 229.08 354.076 236.974 355.566 243.966L358.751 243.702C356.423 232.346 351.296 225.935 343.873 225.171Z" fill="#66657A"/>
<path d="M432.883 210.011C421.632 165.573 404.919 157.725 398.58 156.38L399.172 158.691C405.396 160.537 420.391 169.31 430.828 210.532C436.299 232.14 437.38 250.255 436.717 264.201H438.829C439.493 250.068 438.393 231.778 432.883 210.011Z" fill="#07003D"/>
<path d="M438.306 271.615C442.553 271.615 445.996 268.172 445.996 263.925C445.996 259.679 442.553 256.236 438.306 256.236C434.06 256.236 430.617 259.679 430.617 263.925C430.617 268.172 434.06 271.615 438.306 271.615Z" fill="#66657A"/>
<path d="M438.306 268.432C440.795 268.432 442.813 266.414 442.813 263.925C442.813 261.436 440.795 259.419 438.306 259.419C435.817 259.419 433.799 261.436 433.799 263.925C433.799 266.414 435.817 268.432 438.306 268.432Z" fill="#8C8C9B"/>
</g>
</svg>
