<svg width="768" height="837" viewBox="0 0 768 837" fill="none" xmlns="http://www.w3.org/2000/svg">
<g clip-path="url(#clip0_2397_12429)">
<rect width="768" height="837" fill="white"/>
<rect width="768" height="837" fill="url(#paint0_linear_2397_12429)"/>
<g clip-path="url(#clip1_2397_12429)">
<g filter="url(#filter0_b_2397_12429)">
<path d="M0 -79.9998H768V585.378L0 788V-79.9998Z" fill="#F2F7FF"/>
</g>
<path d="M-81.0664 750.646L142.934 683.888V765.243L-81.0664 832V750.646Z" fill="#3F93DA"/>
<path d="M526.934 435.812L769.934 364.05V445.405L526.934 517.166V435.812Z" fill="#7AC1FD"/>
<path d="M614 558.3L896 469V554.7L614 644V558.3Z" fill="#57D5EA"/>
<path d="M441.601 542.96L768.001 445.324V526.678L441.601 624.314V542.96Z" fill="#3F93DA"/>
<path d="M0 657.153L224 590.396V671.75L0 738.508V657.153Z" fill="#57D5EA"/>
<g opacity="0.6" filter="url(#filter1_f_2397_12429)">
<ellipse cx="688.5" cy="269" rx="108.5" ry="219" fill="#56CCF2"/>
</g>
</g>
</g>
<defs>
<filter id="filter0_b_2397_12429" x="-100" y="-180" width="968" height="1068" filterUnits="userSpaceOnUse" color-interpolation-filters="sRGB">
<feFlood flood-opacity="0" result="BackgroundImageFix"/>
<feGaussianBlur in="BackgroundImageFix" stdDeviation="50"/>
<feComposite in2="SourceAlpha" operator="in" result="effect1_backgroundBlur_2397_12429"/>
<feBlend mode="normal" in="SourceGraphic" in2="effect1_backgroundBlur_2397_12429" result="shape"/>
</filter>
<filter id="filter1_f_2397_12429" x="280" y="-250" width="817" height="1038" filterUnits="userSpaceOnUse" color-interpolation-filters="sRGB">
<feFlood flood-opacity="0" result="BackgroundImageFix"/>
<feBlend mode="normal" in="SourceGraphic" in2="BackgroundImageFix" result="shape"/>
<feGaussianBlur stdDeviation="150" result="effect1_foregroundBlur_2397_12429"/>
</filter>
<linearGradient id="paint0_linear_2397_12429" x1="317.333" y1="-391.318" x2="556.956" y2="802.278" gradientUnits="userSpaceOnUse">
<stop offset="0.184554" stop-color="white" stop-opacity="0"/>
<stop offset="0.858499" stop-color="white" stop-opacity="0"/>
<stop offset="0.865531" stop-color="#2F3036"/>
</linearGradient>
<clipPath id="clip0_2397_12429">
<rect width="768" height="837" fill="white"/>
</clipPath>
<clipPath id="clip1_2397_12429">
<rect width="978" height="941" fill="white" transform="translate(-82 -79.9998)"/>
</clipPath>
</defs>
</svg>
