<svg width="16" height="13" viewBox="0 0 16 13" fill="none" xmlns="http://www.w3.org/2000/svg">
<g clip-path="url(#clip0_2007_5154)">
<path fill-rule="evenodd" clip-rule="evenodd" d="M15.9298 2.03061C13.5439 3.1586 12.351 4.48397 12.351 6.00675C13.3679 6.11955 14.2088 6.51904 14.8738 7.20523C15.5387 7.89143 15.8712 8.68571 15.8712 9.5881C15.8712 10.5469 15.5485 11.3553 14.9031 12.0133C14.2577 12.6713 13.4461 13.0002 12.4683 13.0002C11.3731 13.0002 10.4246 12.5726 9.62279 11.7172C8.82096 10.8618 8.42005 9.8231 8.42005 8.60111C8.42005 4.93515 10.5517 2.06822 14.8151 0.000244141L15.9298 2.03061ZM7.50978 2.03061C5.10429 3.1586 3.90156 4.48397 3.90156 6.00675C4.93808 6.11955 5.78878 6.51904 6.45372 7.20523C7.11865 7.89143 7.45111 8.68571 7.45111 9.5881C7.45111 10.5469 7.12354 11.3553 6.46838 12.0133C5.81323 12.6713 4.99675 13.0002 4.0189 13.0002C2.92372 13.0002 1.98012 12.5726 1.18807 11.7172C0.39602 10.8618 0 9.8231 0 8.60111C0 4.93515 2.12188 2.06822 6.36571 0.000244141L7.50978 2.03061Z" fill="#8F9098"/>
</g>
<defs>
<clipPath id="clip0_2007_5154">
<rect width="16" height="13" fill="white" transform="translate(0 0.000244141)"/>
</clipPath>
</defs>
</svg>
